<?xml version="1.0" encoding="utf-8"?>
<!-- Generator: Adobe Illustrator 25.2.0, SVG Export Plug-In . SVG Version: 6.00 Build 0)  -->
<svg version="1.1" id="Vector_Smart_Object_xA0_Imagen_1_"
	 xmlns="http://www.w3.org/2000/svg" xmlns:xlink="http://www.w3.org/1999/xlink" x="0px" y="0px" viewBox="0 0 800 532.5"
	 style="enable-background:new 0 0 800 532.5;" xml:space="preserve">
<style type="text/css">
	.st0{fill:none;}
	.st1{fill:#4A8C40;}
	.st2{opacity:0.3;fill:#BFD572;}
	.st3{fill:#BFD572;}
	.st4{fill:url(#SVGID_1_);}
	.st5{fill:url(#SVGID_2_);}
	.st6{fill:#2F5129;}
	.st7{fill:url(#SVGID_3_);}
	.st8{fill:url(#SVGID_4_);}
	.st9{fill:url(#SVGID_5_);}
	.st10{fill:url(#SVGID_6_);}
	.st11{fill:url(#SVGID_7_);}
	.st12{fill:url(#SVGID_8_);}
	.st13{fill:url(#SVGID_9_);}
	.st14{fill:url(#SVGID_10_);}
	.st15{fill:url(#SVGID_11_);}
	.st16{fill:url(#SVGID_12_);}
	.st17{fill:url(#SVGID_13_);}
	.st18{fill:url(#SVGID_14_);}
	.st19{fill:url(#SVGID_15_);}
	.st20{fill:url(#SVGID_16_);}
	.st21{fill:url(#SVGID_17_);}
	.st22{fill:url(#SVGID_18_);}
	.st23{fill:#4B8B40;}
</style>
<path class="st0" d="M364.7,411.7c0.9-2.1,0-4.6-2.1-5.6l-5-2.2l-3.1,7.1c2.7,1,5.5,1.9,8.3,2.7
	C363.6,413.3,364.3,412.6,364.7,411.7z"/>
<g>
	<g>
		<g>
			<path class="st1" d="M361.1,482.9l0.4-1.3c1.3-5-0.4-11.2-6.3-13.2l-13.5-4.5l-9.2,27.9l4.7,1.6l2.1-6.5l7.7,2.5
				C352.8,491.2,358.9,488.4,361.1,482.9z M353.4,484.3c-1.5,0.8-3.2,0.9-4.8,0.3l-7.6-2.5l3.9-11.9l7.7,2.5c3.3,1.2,5,4.6,3.9,7.9
				C356,482.2,354.9,483.5,353.4,484.3z"/>
		</g>
		<g>
			<path class="st1" d="M389.3,496.4l1.6-0.6c3.4-1.2,5.6-4,6.2-7.7c0.9-6.2-2.8-11.8-8.4-12.6l-14.1-2l-4.2,29l4.9,0.7l1.2-8
				l7.8,1.1l4.1,8.7l6,0.9L389.3,496.4z M384.9,492.3l-7.9-1.2l1.7-12l8,1.2c3.4,0.5,5.8,3.7,5.3,7
				C391.5,490.7,388.5,492.8,384.9,492.3z"/>
		</g>
		<g>
			<path class="st1" d="M438,493.1c0.4-4.9-1.6-9.4-4.9-12.5c-2.5-2.3-5.8-3.8-9.4-4.1c-8.6-0.6-16,5.8-16.7,14.4
				c-0.6,8.5,5.8,16,14.4,16.6C429.9,508.1,437.4,501.7,438,493.1z M429.7,500.3c-2.2,1.9-5.1,2.9-8,2.6c-2.6-0.2-4.9-1.3-6.7-2.9
				c-2.4-2.2-3.7-5.4-3.5-8.8c0.4-6.1,5.7-10.6,11.8-10.2c6,0.4,10.6,5.7,10.1,11.8c-0.2,2.5-1.2,4.8-2.9,6.7
				C430.3,499.8,430,500,429.7,500.3z"/>
		</g>
		<g>
			<path class="st1" d="M477,495c2.2-3.3,2.9-7.2,2.1-11.1c-0.8-4.1-2.9-7.3-5.8-9.3c-3.1-2.2-7.1-3-11.5-2.1l-13.6,2.8l5.9,28.8
				l13.6-2.8C471.6,500.5,474.9,498.3,477,495z M467.5,496.4L467.5,496.4l-9.6,2l-3.9-19.3l9.5-2c4.9-1,9.8,2.5,10.9,7.8
				c0.6,2.9-0.1,5.7-1.6,7.9C471.6,494.6,469.7,495.9,467.5,496.4z"/>
		</g>
		<g>
			<path class="st1" d="M516,469.4l-5.4-13.3l-4.6,1.9l5.4,13.3c1.1,2.6,1.1,5.5,0.2,8c-0.9,2.6-2.9,4.6-5.5,5.7
				c-5.2,2.1-11-0.7-13.3-6.2l-5.4-13.3l-4.6,1.9l5.4,13.3c1.7,4.3,4.6,7.4,8.3,9.1c3.6,1.6,7.6,1.6,11.5,0
				C516.1,486.4,519.4,477.9,516,469.4z"/>
		</g>
		<g>
			<path class="st1" d="M554.1,458.9l-4.3,0c-1,2.8-2.3,4.9-5.1,6.7c-2.5,1.6-5.4,2.1-8.3,1.5c-2.9-0.6-5.3-2.3-6.9-4.8
				c-1.6-2.5-2.1-5.4-1.5-8.3c0.6-2.9,2.3-5.3,4.8-6.9c2.5-1.6,5.1-2.2,8.3-1.8l1.8-3.9c-4.2-1.2-8.8-0.5-12.5,1.9
				c-3.5,2.2-5.9,5.7-6.8,9.8c-0.9,4.1-0.1,8.2,2.1,11.7c2.2,3.5,5.7,5.9,9.7,6.8c4,0.9,8.2,0.1,11.7-2.1
				C550.9,467.1,553.4,463.2,554.1,458.9z"/>
		</g>
		<g>
			<path class="st1" d="M563.3,423.9l9.1-8.2l-2.7-3l-21.8,19.7l2.7,3l9.1-8.2l17,18.8l3.6-3.2L563.3,423.9z"/>
		</g>
		<g>
			<path class="st1" d="M608.1,399c-5.1-3.8-9.4-0.6-13.8,3.5c-0.2,0.2-0.4,0.3-0.5,0.5c-0.2,0.2-0.4,0.4-0.7,0.7
				c-1.7,1.8-4.8,5.1-7.6,3c-2.4-1.8-2.5-5.6-0.3-8.5c1.3-1.7,2.6-2.8,4-3.4c0.7-0.3,1.3-0.4,1.9-0.3l3.2-4.3
				c-3.1-1.2-7.8,0.3-12,5.8c-4,5.3-4.1,12.1-0.2,15c2.9,2.2,6.4,1.3,11.1-2.9c0.2-0.2,0.6-0.5,0.9-0.9c2.2-2.2,6.8-6.8,10.6-3.9
				c1.2,0.9,1.7,2.4,1.6,4.3c-0.1,1.7-0.8,3.3-1.8,4.7c-2.8,3.7-6,3.7-7.9,3.1l-3.4,4.4c1.3,0.6,3.2,0.9,5.3,0.5
				c2.3-0.4,5.6-1.8,8.7-5.9C611.5,409,611.8,401.8,608.1,399z"/>
		</g>
	</g>
	<g>
		<path class="st2" d="M620,151.7c0.9-0.9,0.1-2,0.1-2S620.4,151.4,620,151.7z"/>
		<path class="st2" d="M617.9,151.8c0,0,1.2,0.9,2.1-0.1C619.6,152.1,617.9,151.8,617.9,151.8z"/>
		<path class="st3" d="M267.7,78.4c-7,5.6-13.7,11.5-20.1,17.9c-21.6,21.6-38.5,46.7-50.4,74.7c-12.1,28.7-18.3,59.1-18.5,90.5
			c0,0,1.5,0.6,2.3-0.2c0.8-0.8,0.7-2.1,0.7-2.1c0.4-30.2,6.5-59.4,18.2-87c11.7-27.6,28.4-52.5,49.7-73.8
			c5.8-5.8,11.9-11.3,18.3-16.5L267.7,78.4z"/>
		<path class="st3" d="M327.3,478c-19.5-7.7-38.2-18.1-55.2-30.9c-6.6-5-12.9-10.2-18.9-15.8c-1.5,0.3-2,2.2-0.9,3.3
			c5.7,5.2,11.7,10.2,17.9,14.9c17.2,12.9,36.1,23.5,55.8,31.2c0.6,0.2,1.2,0,1.4-0.6l0.3-0.7C328.2,478.9,327.9,478.3,327.3,478z"
			/>
		<path class="st3" d="M617.9,151.8l2.2-2.1c-10.7-19.5-24.1-37.4-40-53.3c-21.6-21.6-46.7-38.5-74.7-50.4
			c-29-12.3-59.8-18.5-91.5-18.5c-2.5,0-5.1,0-7.6,0.1c-0.2,1-0.5,2-0.8,3c2.8-0.1,5.6-0.1,8.5-0.1c31.3,0,61.7,6.1,90.3,18.2
			c27.6,11.7,52.5,28.4,73.8,49.7C593.9,114.4,607.3,132.3,617.9,151.8C617.9,151.8,617.9,151.8,617.9,151.8z"/>
		<path class="st2" d="M620,151.7c0.4-0.3,0.1-2,0.1-2l-2.2,2.1C617.9,151.8,619.6,152.1,620,151.7z"/>
		<path class="st3" d="M646.7,266.4c-0.5,0-0.9,0.4-0.9,0.9c-0.4,18-2.9,35.9-7.6,53.4c-6.4,24.3-16.6,47.1-30.3,68
			c-0.3,0.4-0.2,0.9,0.2,1.2l0.2,0.1c0.9,0.6,2.1,0.4,2.7-0.5c13.6-20.9,23.7-43.7,30.1-68c4.6-17.6,7.2-35.5,7.6-53.5
			c0-0.9-0.7-1.6-1.6-1.6H646.7z"/>
	</g>
	<g>
		<g>
			<g>
				<path class="st3" d="M236.5,87.4c-1.8,0-4.1-0.4-6.7-1.5c-7-3.1-8.8-6.6-8.8-6.8c-0.2-0.3,0-0.8,0.3-0.9c0.3-0.1,7-3.5,13-0.3
					c5.9,3.2,7.7,7.3,7.7,7.5c0.1,0.3,0,0.7-0.3,0.9C241.6,86.4,239.7,87.4,236.5,87.4z"/>
			</g>
			<g>
				<path class="st3" d="M249.2,89.3C249.2,89.3,249.2,89.3,249.2,89.3c-4.1-0.2-8.1-2.9-8.2-3.1c-0.3-0.2-0.4-0.7-0.2-1
					c0.2-0.3,0.7-0.4,1-0.2c0.1,0,3.8,2.6,7.5,2.8c0.4,0,0.7,0.4,0.7,0.7C249.9,89,249.5,89.3,249.2,89.3z"/>
			</g>
		</g>
		<path class="st3" d="M157.9,208.5c-3.7,0-5.6-1-5.7-1c-0.3-0.2-0.5-0.6-0.3-0.9c0.1-0.3,3.7-6.9,10.4-7.7
			c6.6-0.8,10.5,1.5,10.6,1.6c0.3,0.2,0.4,0.6,0.3,0.9c-0.1,0.2-2.3,5-9.9,6.6C161.2,208.4,159.4,208.5,157.9,208.5z"/>
		<path class="st3" d="M172.6,201.8c-0.4,0-0.7-0.3-0.7-0.7s0.3-0.7,0.7-0.7l0,0c0,0,4.6,0,7.7-2c0.3-0.2,0.8-0.1,1,0.2
			c0.2,0.3,0.1,0.8-0.2,1C177.6,201.8,172.8,201.8,172.6,201.8L172.6,201.8z"/>
		<path class="st3" d="M157.6,241C157.5,241,157.5,241,157.6,241c-0.5,0-0.8-0.3-0.8-0.7c0-0.3,0.3-7.8,6-11.5
			c5.6-3.6,10.1-3.2,10.3-3.2c0.4,0,0.6,0.3,0.6,0.7c0,0.2,0.1,5.6-6,10.3C162.1,240.8,158.2,241,157.6,241z"/>
		<path class="st3" d="M173,226.9c-0.3,0-0.5-0.1-0.6-0.4c-0.2-0.4,0-0.8,0.3-0.9l0,0c0,0,4.1-2,6.1-5.2c0.2-0.3,0.6-0.4,1-0.2
			c0.3,0.2,0.4,0.6,0.2,1c-2.2,3.5-6.5,5.6-6.6,5.7C173.2,226.9,173.1,226.9,173,226.9z"/>
		<path class="st3" d="M253.6,150.2c-1.9,0-5.5-0.4-10.4-2.9c-7.7-3.8-8.7-9.6-8.8-9.9c-0.1-0.4,0.2-0.7,0.5-0.8
			c0.2-0.1,5-1.4,11.9,1.3c7,2.8,8.9,10.9,9,11.3c0.1,0.4-0.1,0.7-0.5,0.8C255.2,150.1,254.6,150.2,253.6,150.2z M235,137.3
			L235,137.3L235,137.3z"/>
		<path class="st3" d="M235,138c-0.1,0-0.1,0-0.2,0c-0.2-0.1-5.4-1.5-8.5-4.8c-0.3-0.3-0.2-0.7,0-1c0.3-0.3,0.7-0.2,1,0
			c2.8,3.1,7.8,4.4,7.8,4.4c0.4,0.1,0.6,0.5,0.5,0.9C235.6,137.8,235.4,138,235,138z"/>
		<g>
			<g>
				<path class="st3" d="M244.7,122.5c-0.3,0-0.6-0.2-0.7-0.5c-0.1-0.2-1.5-4.3,1.4-12.2c2.9-8,8.6-9.6,8.8-9.7
					c0.3-0.1,0.7,0.1,0.8,0.4c0.1,0.2,1.9,4.8,0,11.9c-2,7.2-9.8,10-10.2,10.1C244.8,122.5,244.8,122.5,244.7,122.5z"/>
			</g>
			<g>
				<path class="st3" d="M254.5,101.5c0,0-0.1,0-0.1,0c-0.4-0.1-0.6-0.4-0.6-0.8c0-0.2,0.9-5.5,3.9-8.9c0.3-0.3,0.7-0.3,1-0.1
					c0.3,0.3,0.3,0.7,0.1,1c-2.7,3.1-3.5,8.1-3.5,8.1C255.1,101.3,254.8,101.5,254.5,101.5z"/>
			</g>
		</g>
		<g>
			<g>
				<path class="st3" d="M196,133.5c-5.1,0-7.5-1.4-7.6-1.4c-0.3-0.2-0.4-0.6-0.3-1c0.2-0.3,4.7-8.2,12.8-8.9
					c8-0.7,12.5,2.2,12.7,2.3c0.3,0.2,0.4,0.6,0.2,0.9c-0.1,0.2-3,6-12.2,7.5C199.5,133.4,197.6,133.5,196,133.5z"/>
			</g>
			<g>
				<path class="st3" d="M213.6,125.9c-0.2,0-0.3,0-0.3,0c-0.4,0-0.7-0.3-0.7-0.7c0-0.4,0.3-0.7,0.7-0.7c0.1,0,5.6,0.1,9.5-2.2
					c0.3-0.2,0.8-0.1,1,0.2c0.2,0.3,0.1,0.8-0.2,1C219.8,125.7,214.9,125.9,213.6,125.9z"/>
			</g>
		</g>
		<path class="st3" d="M176.5,171.4c-6.7,0-9.5-2.1-9.7-2.2c-0.3-0.2-0.4-0.7-0.1-1c0.2-0.3,4.8-6.5,11.9-6.3
			c6.9,0.2,10.5,3.2,10.6,3.3c0.3,0.2,0.3,0.6,0.1,0.9c-0.1,0.2-3.2,4.8-11.2,5.2C177.6,171.4,177,171.4,176.5,171.4z"/>
		<path class="st3" d="M191.3,166.7c-1.5,0-2.6-0.2-2.7-0.2c-0.4-0.1-0.7-0.4-0.6-0.8c0.1-0.4,0.4-0.7,0.8-0.6l0,0
			c0,0,4.7,0.7,8.2-0.9c0.4-0.2,0.8,0,0.9,0.4c0.2,0.4,0,0.8-0.4,0.9C195.5,166.4,193.1,166.7,191.3,166.7z"/>
		<path class="st3" d="M175.6,186.5C175.6,186.5,175.6,186.5,175.6,186.5c-0.4,0-0.7-0.3-0.7-0.7c0-0.3-0.1-8.1,5.7-12.2
			c5.6-4,10.3-3.8,10.5-3.8c0.4,0,0.6,0.3,0.7,0.7c0,0.2,0.4,5.7-5.8,10.9C179.9,186.4,175.8,186.5,175.6,186.5z"/>
		<path class="st3" d="M191.1,171.3c-0.3,0-0.5-0.1-0.6-0.4c-0.2-0.3-0.1-0.8,0.3-1l0,0c0,0,4.2-2.3,6-5.7c0.2-0.3,0.6-0.5,1-0.3
			c0.3,0.2,0.5,0.6,0.3,1c-2.1,3.7-6.4,6.1-6.6,6.2C191.3,171.3,191.2,171.3,191.1,171.3z"/>
		<g>
			<g>
				<path class="st3" d="M272,110.8c-0.1,0-0.1,0-0.2,0c-0.1,0-3.1-1-6.3-5.9c-3.3-5-1.8-8.9-1.7-9.1c0.1-0.3,0.5-0.5,0.8-0.4
					c0.1,0,3.5,0.9,6.7,5c3.2,4.2,1.5,9.7,1.4,10C272.6,110.6,272.3,110.8,272,110.8z"/>
			</g>
			<g>
				<path class="st3" d="M264.5,96.7c-0.2,0-0.4-0.1-0.5-0.2c-0.1-0.1-2.7-2.8-3.3-5.9c-0.1-0.4,0.2-0.8,0.5-0.8
					c0.4-0.1,0.8,0.2,0.8,0.5c0.6,2.7,2.9,5.2,3,5.2c0.3,0.3,0.3,0.7,0,1C264.8,96.6,264.7,96.7,264.5,96.7z"/>
			</g>
		</g>
		<path class="st3" d="M231.2,158.1c-0.1,0-0.2,0-0.3-0.1c-0.2-0.1-5.6-2.3-6.7-7.5c-1.1-5,0.4-8.2,0.4-8.3c0.2-0.3,0.5-0.5,0.9-0.4
			c0.2,0.1,4.1,1.4,5.8,7.1c1.7,5.6,0.6,8.5,0.5,8.6C231.7,158,231.4,158.1,231.2,158.1z"/>
		<path class="st3" d="M225.2,143.3c-0.4,0-0.7-0.3-0.7-0.6c0,0-0.4-3.4-2.1-5.6c-0.2-0.3-0.2-0.8,0.1-1c0.3-0.2,0.8-0.2,1,0.1
			c2,2.5,2.4,6.2,2.4,6.4C226,142.9,225.7,143.3,225.2,143.3C225.3,143.3,225.2,143.3,225.2,143.3z"/>
		<path class="st3" d="M201.2,247.9c-0.8,0-6.2-0.2-9-4.2c-3-4.2-2.9-7.7-2.9-7.8c0-0.4,0.3-0.6,0.6-0.7c0.2,0,4.3-0.3,8.2,4.3
			c3.8,4.5,3.9,7.6,3.9,7.7C202,247.5,201.7,247.9,201.2,247.9C201.3,247.9,201.2,247.9,201.2,247.9z"/>
		<path class="st3" d="M190,236.6c-0.2,0-0.5-0.1-0.6-0.4c0,0-1.7-3-4.1-4.4c-0.3-0.2-0.5-0.6-0.3-1c0.2-0.3,0.6-0.5,1-0.3
			c2.8,1.5,4.6,4.8,4.7,4.9c0.2,0.3,0.1,0.8-0.3,1C190.2,236.5,190.1,236.6,190,236.6z"/>
		<g>
			<path class="st3" d="M236.6,156.9c-0.8-3,0-4.9,0.1-5c0.1-0.2,0.3-0.3,0.5-0.2c0.1,0,2.5,0.8,3.7,4.1c1.2,3.3,0.6,5.1,0.5,5.2
				c-0.1,0.2-0.3,0.3-0.5,0.3c-0.1,0-1.8-0.6-3.1-2.1C237.2,158.5,236.8,157.8,236.6,156.9z"/>
		</g>
		<g>
			<path class="st3" d="M236.7,152.4c0.1,0.1,0.2,0.2,0.4,0.1c0.2,0,0.4-0.2,0.4-0.5c0-0.1-0.3-2.3-1.6-3.8l0,0
				c-0.2-0.2-0.4-0.2-0.6,0c-0.2,0.2-0.2,0.4,0,0.6c1.1,1.3,1.4,3.3,1.4,3.3C236.6,152.2,236.6,152.3,236.7,152.4z"/>
		</g>
		<g>
			<path class="st3" d="M244.7,156.4c-3.4-2-4.4-4.4-4.4-4.5c-0.1-0.3,0-0.5,0.2-0.7c0.1-0.1,2.9-1.5,7,0.4c4,1.9,5,4.1,5.1,4.2
				c0.1,0.3,0,0.6-0.3,0.7c-0.1,0.1-2.2,1-4.6,0.8C246.7,157.3,245.7,157,244.7,156.4z"/>
		</g>
		<g>
			<path class="st3" d="M240.7,152.2c0.2,0,0.4-0.1,0.5-0.2c0.2-0.2,0.1-0.6-0.1-0.8c-0.1-0.1-2.4-1.8-4.8-2l0,0
				c-0.3,0-0.6,0.2-0.6,0.5c0,0.3,0.2,0.6,0.5,0.6c2.1,0.2,4.2,1.7,4.2,1.7C240.6,152.2,240.6,152.2,240.7,152.2z"/>
		</g>
		<g>
			<path class="st3" d="M191.6,224c-0.8-3,0-4.9,0.1-5c0.1-0.2,0.3-0.3,0.5-0.2c0.1,0,2.5,0.8,3.7,4.1c1.2,3.3,0.6,5.1,0.5,5.2
				c-0.1,0.2-0.3,0.3-0.5,0.3c-0.1,0-1.8-0.6-3.1-2.1C192.2,225.6,191.8,224.9,191.6,224z"/>
		</g>
		<g>
			<path class="st3" d="M191.7,219.5c0.1,0.1,0.2,0.2,0.4,0.1c0.2,0,0.4-0.2,0.4-0.5c0-0.1-0.3-2.3-1.6-3.8l0,0
				c-0.2-0.2-0.4-0.2-0.6,0c-0.2,0.2-0.2,0.4,0,0.6c1.1,1.3,1.4,3.3,1.4,3.3C191.6,219.3,191.6,219.4,191.7,219.5z"/>
		</g>
		<g>
			<path class="st3" d="M199.7,223.5c-3.4-2-4.4-4.4-4.4-4.5c-0.1-0.3,0-0.5,0.2-0.7c0.1-0.1,2.9-1.5,7,0.4c4,1.9,5,4.1,5.1,4.2
				c0.1,0.3,0,0.6-0.3,0.7c-0.1,0.1-2.2,1-4.6,0.8C201.7,224.4,200.7,224.1,199.7,223.5z"/>
		</g>
		<g>
			<path class="st3" d="M195.8,219.3c0.2,0,0.4-0.1,0.5-0.2c0.2-0.2,0.1-0.6-0.1-0.8c-0.1-0.1-2.4-1.8-4.8-2c0,0,0,0,0,0
				c-0.3,0-0.6,0.2-0.6,0.5c0,0.3,0.2,0.6,0.5,0.6c2.1,0.2,4.2,1.7,4.2,1.7C195.6,219.3,195.7,219.3,195.8,219.3z"/>
		</g>
		<g>
			<path class="st3" d="M175.5,205.2c3.1-0.4,4.9,0.6,5,0.7c0.2,0.1,0.3,0.3,0.2,0.5c0,0.1-1,2.4-4.6,3.2c-3.4,0.8-5.1-0.1-5.2-0.1
				c-0.2-0.1-0.3-0.4-0.2-0.6c0-0.1,0.9-1.7,2.5-2.8C173.8,205.6,174.6,205.3,175.5,205.2z"/>
		</g>
		<g>
			<path class="st3" d="M180,205.8c-0.1,0.1-0.2,0.2-0.2,0.4c0,0.2,0.2,0.4,0.4,0.4c0.1,0,2.3-0.1,3.9-1.1l0,0
				c0.2-0.1,0.2-0.4,0.1-0.6c-0.1-0.2-0.4-0.2-0.6-0.1c-1.4,0.9-3.4,1-3.5,1C180.1,205.8,180.1,205.8,180,205.8z"/>
		</g>
		<g>
			<path class="st3" d="M175,213.3c2.4-3.1,4.9-3.8,5-3.8c0.3-0.1,0.5,0.1,0.6,0.3c0,0.1,1.2,3.1-1.3,6.9c-2.4,3.8-4.6,4.5-4.7,4.5
				c-0.3,0.1-0.6-0.1-0.7-0.3c0-0.1-0.7-2.3-0.3-4.7C173.9,215.2,174.3,214.2,175,213.3z"/>
		</g>
		<g>
			<path class="st3" d="M179.6,209.9c0,0.2,0,0.4,0.2,0.5c0.2,0.2,0.6,0.2,0.8,0c0.1-0.1,2-2.1,2.5-4.5c0,0,0,0,0,0
				c0.1-0.3-0.1-0.6-0.4-0.6c-0.3-0.1-0.6,0.1-0.6,0.4c-0.4,2.1-2.2,3.9-2.2,4C179.7,209.7,179.6,209.8,179.6,209.9z"/>
		</g>
		<g>
			<g>
				<g>
					<path class="st3" d="M238.4,101.9c-1.7,0.9-3.5,0.8-3.6,0.8c-0.2,0-0.4-0.2-0.4-0.4c0-0.1,0.1-1.9,2.4-4.6
						c2.4-2.7,4.9-2.5,5-2.5c0.2,0,0.4,0.2,0.4,0.4c0,0.1,0,2.2-1.8,4.7C239.8,101.1,239.1,101.6,238.4,101.9z"/>
				</g>
			</g>
			<g>
				<g>
					<path class="st3" d="M241.9,96.1c-0.1,0.1-0.3,0.1-0.4,0c-0.2-0.1-0.3-0.4-0.2-0.6c0-0.1,1.2-2,2.9-2.9l0,0
						c0.2-0.1,0.5,0,0.6,0.2c0.1,0.2,0,0.5-0.2,0.6c-1.5,0.8-2.5,2.6-2.5,2.6C242.1,96,242,96,241.9,96.1z"/>
				</g>
			</g>
		</g>
		<g>
			<g>
				<g>
					<path class="st3" d="M229.8,96.6c-2.3-0.7-3.9-2.4-4-2.5c-0.2-0.2-0.2-0.5,0-0.8c0.1-0.1,1.8-1.7,6.2-2
						c4.5-0.3,6.6,2.1,6.7,2.2c0.2,0.2,0.2,0.5,0,0.7c-0.1,0.1-1.9,2-5.8,2.6C231.8,97,230.8,96.9,229.8,96.6z"/>
				</g>
			</g>
			<g>
				<g>
					<path class="st3" d="M238.2,94.4c-0.2-0.1-0.3-0.2-0.4-0.4c-0.1-0.3,0.1-0.6,0.4-0.7c0.1,0,2.8-0.8,5.1-0.1l0,0
						c0.3,0.1,0.4,0.4,0.4,0.7c-0.1,0.3-0.4,0.4-0.7,0.4c-2-0.6-4.5,0.1-4.5,0.1C238.4,94.5,238.3,94.5,238.2,94.4z"/>
				</g>
			</g>
		</g>
		<g>
			<g>
				<g>
					<path class="st3" d="M223.6,105.8c2.2,2.2,2.5,4.2,2.5,4.3c0,0.2-0.1,0.4-0.3,0.5c-0.1,0-2.5,0.6-5.3-1.7
						c-2.7-2.3-3.1-4.1-3.1-4.2c0-0.2,0.1-0.4,0.3-0.5c0.1,0,1.9-0.4,3.7,0.2C222.2,104.7,223,105.1,223.6,105.8z"/>
				</g>
			</g>
			<g>
				<g>
					<path class="st3" d="M225.9,109.7c-0.1,0-0.3,0-0.4,0.1c-0.2,0.1-0.2,0.4-0.1,0.6c0.1,0.1,1.5,1.8,3.3,2.4l0,0
						c0.2,0.1,0.5,0,0.5-0.3c0.1-0.2,0-0.5-0.3-0.5c-1.6-0.5-2.9-2.1-2.9-2.1C226,109.8,225.9,109.8,225.9,109.7z"/>
				</g>
			</g>
		</g>
		<g>
			<path class="st3" d="M198.7,139.7c2.6,1.7,3.3,3.7,3.3,3.7c0.1,0.2,0,0.4-0.2,0.5c-0.1,0-2.4,1.1-5.5-0.6
				c-3.1-1.7-3.8-3.4-3.8-3.5c-0.1-0.2,0-0.5,0.2-0.5c0.1,0,1.8-0.7,3.7-0.5C197.1,139,198,139.2,198.7,139.7z"/>
		</g>
		<g>
			<path class="st3" d="M201.7,143.2c-0.1,0-0.3,0-0.4,0.1c-0.1,0.2-0.1,0.4,0.1,0.6c0.1,0.1,1.8,1.5,3.7,1.7c0,0,0,0,0,0
				c0.2,0,0.4-0.1,0.5-0.4c0-0.2-0.1-0.4-0.4-0.5c-1.6-0.2-3.2-1.5-3.3-1.5C201.8,143.2,201.8,143.2,201.7,143.2z"/>
		</g>
		<g>
			<g>
				<g>
					<path class="st3" d="M209.1,129.9c2.9-1.2,4.9-0.7,5-0.6c0.2,0.1,0.3,0.3,0.3,0.5c0,0.1-0.4,2.6-3.6,4.2c-3.1,1.6-5,1.3-5,1.2
						c-0.2,0-0.4-0.3-0.3-0.5c0-0.1,0.4-1.9,1.7-3.3C207.6,130.8,208.3,130.3,209.1,129.9z"/>
				</g>
			</g>
			<g>
				<g>
					<path class="st3" d="M213.6,129.4c-0.1,0.1-0.1,0.3-0.1,0.4c0.1,0.2,0.3,0.4,0.5,0.3c0.1,0,2.2-0.7,3.5-2.1l0,0
						c0.2-0.2,0.1-0.4,0-0.6c-0.2-0.2-0.4-0.1-0.6,0c-1.1,1.2-3.1,1.8-3.1,1.8C213.8,129.3,213.7,129.4,213.6,129.4z"/>
				</g>
			</g>
		</g>
		<g>
			<path class="st3" d="M191.8,150.3c2.5-1.9,4.6-1.9,4.6-1.9c0.2,0,0.4,0.2,0.4,0.4c0,0.1,0.3,2.6-2.4,5c-2.6,2.4-4.5,2.5-4.6,2.5
				c-0.2,0-0.4-0.2-0.4-0.4c0-0.1-0.1-1.9,0.8-3.6C190.6,151.5,191.1,150.8,191.8,150.3z"/>
		</g>
		<g>
			<path class="st3" d="M196.1,148.7c-0.1,0.1-0.1,0.3,0,0.4c0.1,0.2,0.4,0.3,0.6,0.1c0.1,0,2-1.2,2.9-2.9l0,0
				c0.1-0.2,0-0.5-0.2-0.6c-0.2-0.1-0.5,0-0.6,0.2c-0.8,1.5-2.5,2.5-2.5,2.6C196.2,148.5,196.1,148.6,196.1,148.7z"/>
		</g>
		<path class="st3" d="M214.4,214c-0.1,0-0.2,0-0.2,0c-0.2-0.1-4.3-1.6-8.4-8.9c-4.2-7.4-1.9-12.7-1.8-12.9c0.1-0.3,0.5-0.5,0.9-0.4
			c0.2,0.1,4.9,1.6,9.1,7.6c4.2,6.1,1.3,13.9,1.2,14.2C215,213.8,214.7,214,214.4,214z"/>
		<path class="st3" d="M204.6,193.1c-0.2,0-0.4-0.1-0.5-0.2c-0.1-0.2-3.6-4.2-4.3-8.6c-0.1-0.4,0.2-0.7,0.6-0.8
			c0.4-0.1,0.7,0.2,0.8,0.6c0.6,4.1,3.9,7.9,4,7.9c0.3,0.3,0.2,0.7-0.1,1C204.9,193.1,204.8,193.1,204.6,193.1z"/>
		<g>
			<path class="st3" d="M209.3,187.5c1.2,1.5,1.4,3.3,1.4,3.4c0,0.2-0.1,0.4-0.4,0.5c-0.1,0-1.9,0.3-4.9-1.6
				c-3.1-1.9-3.3-4.4-3.3-4.5c0-0.2,0.1-0.4,0.3-0.4c0.1,0,2.1-0.4,4.9,1C208.2,186.3,208.8,186.9,209.3,187.5z"/>
		</g>
		<g>
			<path class="st3" d="M202.9,185.1c0.1,0.1,0.1,0.3,0.1,0.4c-0.1,0.2-0.3,0.3-0.5,0.3c-0.1,0-2.2-0.8-3.3-2.3l0,0
				c-0.1-0.2-0.1-0.5,0.1-0.6c0.2-0.1,0.5-0.1,0.6,0.1c1,1.3,2.9,2,3,2C202.8,185,202.9,185.1,202.9,185.1z"/>
		</g>
		<g>
			<path class="st3" d="M200.9,199.6c-1.1,1.6-2.6,2.5-2.7,2.5c-0.2,0.1-0.5,0-0.6-0.2c0-0.1-0.9-1.7-0.2-5.2c0.7-3.5,3-4.6,3.1-4.6
				c0.2-0.1,0.4,0,0.5,0.2c0,0.1,1.1,1.9,0.7,4.9C201.6,198.1,201.3,198.9,200.9,199.6z"/>
		</g>
		<g>
			<path class="st3" d="M201,192.7c-0.1,0.1-0.2,0.2-0.4,0.2c-0.2,0-0.4-0.2-0.4-0.4c0-0.1,0-2.3,1.1-3.9c0,0,0,0,0,0
				c0.1-0.2,0.4-0.3,0.6-0.1c0.2,0.1,0.3,0.4,0.1,0.6c-0.9,1.4-0.9,3.5-0.9,3.5C201.1,192.6,201,192.7,201,192.7z"/>
		</g>
		<path class="st3" d="M220.4,181.7c-0.1,0-0.3,0-0.4-0.1c-0.2-0.1-3.9-2.5-6.5-10.7c-2.7-8.3,0.8-13.1,1-13.3
			c0.2-0.3,0.6-0.4,0.9-0.2c0.2,0.1,4.5,2.6,7.4,9.5c2.9,7-1.6,14.1-1.8,14.4C220.9,181.6,220.7,181.7,220.4,181.7z"/>
		<path class="st3" d="M215.1,158.8c-0.2,0-0.5-0.1-0.6-0.4c-0.1-0.2-2.7-4.9-2.5-9.5c0-0.4,0.4-0.7,0.7-0.7c0.4,0,0.7,0.4,0.7,0.7
			c-0.2,4.2,2.3,8.7,2.3,8.8c0.2,0.3,0.1,0.8-0.3,1C215.3,158.7,215.2,158.8,215.1,158.8z"/>
		<g>
			<path class="st3" d="M222.7,154.9c0.8,1.7,0.7,3.5,0.7,3.6c0,0.2-0.2,0.4-0.4,0.4c-0.1,0-1.9-0.1-4.5-2.6
				c-2.6-2.5-2.3-4.9-2.3-5.1c0-0.2,0.2-0.4,0.4-0.4c0.1,0,2.2,0,4.6,2C221.8,153.5,222.3,154.2,222.7,154.9z"/>
		</g>
		<g>
			<path class="st3" d="M216.9,151.2c0.1,0.1,0.1,0.3,0,0.4c-0.1,0.2-0.4,0.3-0.6,0.1c-0.1,0-2-1.2-2.8-3c0,0,0,0,0,0
				c-0.1-0.2,0-0.5,0.2-0.6c0.2-0.1,0.5,0,0.6,0.2c0.7,1.5,2.5,2.6,2.5,2.6C216.8,151,216.9,151.1,216.9,151.2z"/>
		</g>
		<g>
			<g>
				<g>
					<path class="st3" d="M216.9,110.3c3.9,0,6,1.6,6.1,1.6c0.2,0.2,0.3,0.5,0.1,0.7c-0.1,0.1-1.7,2.8-6.2,3.2
						c-4.4,0.4-6.4-0.9-6.5-1c-0.2-0.2-0.3-0.5-0.1-0.7c0.1-0.1,1.4-2,3.5-3.1C214.7,110.7,215.7,110.4,216.9,110.3z"/>
				</g>
			</g>
			<g>
				<g>
					<path class="st3" d="M222.4,111.9c-0.2,0.1-0.3,0.2-0.3,0.4c0,0.3,0.2,0.6,0.5,0.6c0.1,0,2.9,0.3,5.1-0.8l0,0
						c0.3-0.1,0.4-0.5,0.2-0.7c-0.1-0.3-0.5-0.4-0.7-0.2c-1.9,0.9-4.5,0.7-4.5,0.7C222.6,111.9,222.5,111.9,222.4,111.9z"/>
				</g>
			</g>
		</g>
		<g>
			<g>
				<g>
					<path class="st3" d="M232.2,125c-0.2-1.7,0.4-2.7,0.4-2.7c0.1-0.1,0.2-0.1,0.3-0.1c0.1,0,1.3,0.6,1.7,2.6
						c0.4,1.9-0.1,2.8-0.1,2.9c-0.1,0.1-0.2,0.2-0.3,0.1c-0.1,0-0.9-0.5-1.5-1.4C232.5,125.9,232.3,125.5,232.2,125z"/>
				</g>
			</g>
			<g>
				<g>
					<path class="st3" d="M232.7,122.5c0,0.1,0.1,0.1,0.2,0.1c0.1,0,0.2-0.1,0.2-0.2c0-0.1,0-1.3-0.6-2.2l0,0
						c-0.1-0.1-0.2-0.1-0.3-0.1c-0.1,0.1-0.1,0.2-0.1,0.3c0.5,0.8,0.5,1.9,0.5,1.9C232.6,122.4,232.6,122.5,232.7,122.5z"/>
				</g>
			</g>
		</g>
		<g>
			<g>
				<g>
					<path class="st3" d="M236.8,125.4c-1.7-1.4-2.1-2.8-2.1-2.8c0-0.1,0-0.3,0.2-0.3c0.1,0,1.7-0.6,3.8,0.8
						c2.1,1.4,2.4,2.6,2.5,2.7c0,0.2,0,0.3-0.2,0.4c-0.1,0-1.3,0.4-2.6,0.1C237.8,126,237.3,125.8,236.8,125.4z"/>
				</g>
			</g>
			<g>
				<g>
					<path class="st3" d="M234.9,122.7c0.1,0,0.2,0,0.3-0.1c0.1-0.1,0.1-0.3,0-0.4c0,0-1.2-1.2-2.5-1.4l0,0c-0.2,0-0.3,0.1-0.4,0.2
						c0,0.2,0.1,0.3,0.2,0.4c1.1,0.3,2.2,1.3,2.2,1.3C234.8,122.7,234.9,122.7,234.9,122.7z"/>
				</g>
			</g>
		</g>
		<g>
			<path class="st3" d="M205.5,173.7c-0.2-1.7,0.4-2.7,0.4-2.7c0.1-0.1,0.2-0.1,0.3-0.1c0.1,0,1.3,0.6,1.7,2.6
				c0.4,1.9-0.1,2.8-0.1,2.9c-0.1,0.1-0.2,0.2-0.3,0.1c-0.1,0-0.9-0.5-1.5-1.4C205.8,174.6,205.6,174.2,205.5,173.7z"/>
		</g>
		<g>
			<path class="st3" d="M205.9,171.2c0,0.1,0.1,0.1,0.2,0.1c0.1,0,0.2-0.1,0.2-0.2c0-0.1,0-1.3-0.6-2.2l0,0
				c-0.1-0.1-0.2-0.1-0.3-0.1c-0.1,0.1-0.1,0.2-0.1,0.3c0.5,0.8,0.5,1.9,0.5,1.9C205.9,171.1,205.9,171.1,205.9,171.2z"/>
		</g>
		<g>
			<path class="st3" d="M210,174c-1.7-1.4-2.1-2.8-2.1-2.8c0-0.1,0-0.3,0.2-0.3c0.1,0,1.7-0.6,3.8,0.8c2.1,1.4,2.4,2.6,2.5,2.7
				c0,0.2,0,0.3-0.2,0.4c-0.1,0-1.3,0.4-2.6,0.1C211.1,174.7,210.5,174.4,210,174z"/>
		</g>
		<g>
			<path class="st3" d="M208.2,171.4c0.1,0,0.2,0,0.3-0.1c0.1-0.1,0.1-0.3,0-0.4c0,0-1.2-1.2-2.5-1.4c0,0,0,0,0,0
				c-0.2,0-0.3,0.1-0.4,0.2c0,0.2,0.1,0.3,0.2,0.4c1.1,0.3,2.2,1.3,2.2,1.3C208.1,171.4,208.1,171.4,208.2,171.4z"/>
		</g>
		<g>
			<path class="st3" d="M172.4,236.8c2.1,0,3.3,0.9,3.3,0.9c0.1,0.1,0.1,0.3,0.1,0.4c0,0.1-0.9,1.5-3.4,1.7
				c-2.4,0.2-3.5-0.5-3.5-0.5c-0.1-0.1-0.2-0.3-0.1-0.4c0-0.1,0.7-1.1,1.9-1.7C171.2,237,171.8,236.8,172.4,236.8z"/>
		</g>
		<g>
			<path class="st3" d="M175.4,237.7c-0.1,0-0.1,0.1-0.2,0.2c0,0.2,0.1,0.3,0.3,0.3c0.1,0,1.6,0.2,2.8-0.4l0,0
				c0.1-0.1,0.2-0.2,0.1-0.4c-0.1-0.1-0.2-0.2-0.4-0.1c-1,0.5-2.4,0.4-2.5,0.4C175.5,237.6,175.4,237.7,175.4,237.7z"/>
		</g>
		<g>
			<path class="st3" d="M171.3,242.3c1.9-1.9,3.7-2.1,3.8-2.2c0.2,0,0.4,0.1,0.4,0.3c0,0.1,0.5,2.2-1.5,4.6c-2,2.3-3.6,2.6-3.6,2.7
				c-0.2,0-0.4-0.1-0.4-0.3c0-0.1-0.3-1.6,0.2-3.2C170.4,243.5,170.7,242.9,171.3,242.3z"/>
		</g>
		<g>
			<path class="st3" d="M174.8,240.4c0,0.1,0,0.2,0.1,0.3c0.1,0.2,0.4,0.2,0.5,0.1c0.1-0.1,1.6-1.3,2.1-2.8c0,0,0,0,0,0
				c0.1-0.2,0-0.4-0.2-0.5c-0.2-0.1-0.4,0-0.5,0.2c-0.5,1.4-1.9,2.5-1.9,2.5C174.8,240.3,174.8,240.3,174.8,240.4z"/>
		</g>
		<path class="st3" d="M416.6,17.3c-0.3,0-0.6-0.2-0.7-0.5c0-0.2-1.2-4,1-9.5c2.2-5.6,8.7-7.1,8.9-7.2c0.4-0.1,0.8,0.1,0.8,0.5
			c0,0.1,0.8,3.6-2.1,9.6c-3,6.1-7.7,7-7.9,7C416.7,17.3,416.6,17.3,416.6,17.3z"/>
		<path class="st3" d="M413,23.7c-0.2,0-0.4-0.1-0.5-0.2c-0.3-0.3-0.2-0.7,0-1c2.4-2.2,3.4-6,3.4-6.1c0.1-0.4,0.5-0.6,0.9-0.5
			c0.4,0.1,0.6,0.5,0.5,0.9c0,0.2-1.1,4.3-3.8,6.7C413.3,23.6,413.2,23.7,413,23.7z"/>
		<path class="st3" d="M555.8,61.5c-0.7,0-1.2-0.1-1.2-0.1c-0.3-0.1-0.6-0.4-0.6-0.7c0-0.2,0.4-4.5,4.7-9.3
			c4.4-4.9,11.6-3.9,11.9-3.9c0.4,0.1,0.6,0.4,0.6,0.8c0,0.2-0.5,4-5.9,9C561.4,61,557.6,61.5,555.8,61.5z M554.7,60.7L554.7,60.7
			L554.7,60.7z"/>
		<path class="st3" d="M548.5,66.6c-0.3,0-0.5-0.2-0.7-0.4c-0.1-0.4,0-0.8,0.4-0.9c3.3-1.3,5.9-4.9,5.9-4.9c0.2-0.3,0.7-0.4,1-0.2
			c0.3,0.2,0.4,0.7,0.2,1c-0.1,0.2-2.8,3.9-6.5,5.4C548.7,66.6,548.6,66.6,548.5,66.6z"/>
		<path class="st3" d="M576.3,77.7c-1.2,0-2.6-0.1-4.1-0.3c-9-1-12-6.4-12.2-6.7c-0.2-0.3-0.1-0.7,0.2-0.9c0.2-0.1,4.4-3.2,12.2-2.9
			c7.9,0.3,12.7,7.7,12.9,8c0.2,0.3,0.1,0.8-0.2,1C584.9,75.9,582.2,77.7,576.3,77.7z M560.6,70.4L560.6,70.4L560.6,70.4z"/>
		<path class="st3" d="M559.3,71.1c-2,0-5.7-0.2-8.7-1.8c-0.3-0.2-0.5-0.6-0.3-1c0.2-0.3,0.6-0.5,1-0.3c3.9,2,9.3,1.6,9.3,1.6
			c0.4,0,0.7,0.3,0.8,0.6c0,0.4-0.3,0.7-0.6,0.8C560.6,71.1,560.1,71.1,559.3,71.1z"/>
		<path class="st3" d="M457.7,69.6c-0.3,0-0.5-0.1-0.6-0.4c-0.1-0.3-3.6-7-0.3-13c3.2-5.9,7.3-7.7,7.4-7.8c0.3-0.1,0.7,0,0.9,0.3
			c0.1,0.2,2.8,4.8-0.3,11.9c-3.1,7-6.6,8.8-6.8,8.9C457.9,69.5,457.8,69.6,457.7,69.6z"/>
		<path class="st3" d="M464.5,49.8c-0.1,0-0.3,0-0.4-0.1c-0.3-0.2-0.4-0.7-0.2-1l0,0c0,0,2.6-3.8,2.8-7.5c0-0.4,0.3-0.7,0.7-0.7
			c0.4,0,0.7,0.3,0.7,0.7c-0.2,4.1-2.9,8.1-3,8.2C464.9,49.7,464.7,49.8,464.5,49.8z"/>
		<path class="st3" d="M476.9,27.6c-2.3,0-3.7-0.6-3.8-0.6c-0.3-0.1-0.5-0.5-0.4-0.8c0.1-0.2,1.4-4.5,6.8-8.3
			c5.6-3.9,12.6-1.3,12.9-1.2c0.4,0.1,0.5,0.5,0.4,0.9c-0.1,0.2-1.5,3.9-8,7.8C481.8,27.1,479,27.6,476.9,27.6z M473.5,26.3
			L473.5,26.3L473.5,26.3z"/>
		<path class="st3" d="M466,30.8c-0.3,0-0.6-0.2-0.7-0.6c-0.1-0.4,0.2-0.7,0.6-0.8c3.6-0.6,7.1-3.6,7.1-3.6c0.3-0.3,0.7-0.2,1,0.1
			c0.3,0.3,0.2,0.7-0.1,1c-0.2,0.1-3.7,3.3-7.8,4C466.1,30.8,466,30.8,466,30.8z"/>
		<path class="st3" d="M522.5,43.3c-1.1,0-1.8-0.2-1.8-0.2c-0.3-0.1-0.5-0.4-0.5-0.8c0-0.1,0.6-3.5,4.4-6.9c3.9-3.5,9.5-2.2,9.7-2.1
			c0.4,0.1,0.6,0.5,0.5,0.8c0,0.1-0.7,3.1-5.4,6.6C526.6,42.9,524.1,43.3,522.5,43.3z M520.8,42.5L520.8,42.5L520.8,42.5z"/>
		<path class="st3" d="M515.6,46.7c-0.3,0-0.6-0.2-0.7-0.5c-0.1-0.4,0.1-0.8,0.5-0.9c2.6-0.8,4.9-3.3,4.9-3.3c0.3-0.3,0.7-0.3,1-0.1
			c0.3,0.3,0.3,0.7,0.1,1c-0.1,0.1-2.5,2.8-5.5,3.7C515.8,46.7,515.7,46.7,515.6,46.7z"/>
		<path class="st3" d="M529.6,50c-5.9,0-8.3-3.3-8.4-3.4c-0.2-0.3-0.2-0.7,0.1-0.9c0.1-0.1,2.6-2.4,7.7-2.8c5.2-0.4,8.8,4,9,4.2
			c0.2,0.3,0.2,0.7-0.1,1C537.8,48.1,535.4,50,529.6,50C529.6,50,529.6,50,529.6,50z M521.8,46.2L521.8,46.2L521.8,46.2z"/>
		<path class="st3" d="M519.1,47.1c-1.2,0-2.6-0.1-3.9-0.6c-0.4-0.1-0.5-0.5-0.4-0.9c0.1-0.4,0.5-0.5,0.9-0.4c2.5,1,5.9,0.3,5.9,0.3
			c0.4-0.1,0.8,0.2,0.8,0.6c0.1,0.4-0.2,0.8-0.5,0.8C521.8,46.9,520.7,47.1,519.1,47.1z"/>
		<path class="st3" d="M431.2,59.4c-0.1,0-0.3,0-0.4-0.1c-0.2-0.1-5.1-3.2-5.4-8.5c-0.2-5.1,1.8-8,1.9-8.1c0.2-0.3,0.6-0.4,0.9-0.2
			c0.2,0.1,3.8,2.1,4.5,8c0.7,5.8-0.9,8.5-1,8.6C431.7,59.3,431.5,59.4,431.2,59.4z"/>
		<path class="st3" d="M428,43.8C427.9,43.8,427.9,43.8,428,43.8c-0.4,0-0.7-0.4-0.7-0.8c0,0,0.2-3.5-1.1-5.9
			c-0.2-0.3-0.1-0.8,0.3-1c0.3-0.2,0.8-0.1,1,0.3c1.5,2.8,1.2,6.5,1.2,6.7C428.6,43.5,428.3,43.8,428,43.8z"/>
		<path class="st3" d="M546.1,108.3c-0.4,0-0.7-0.3-0.7-0.7c0-0.2-0.2-6.1,4-9.2c4.1-3.1,7.6-3,7.8-3c0.4,0,0.6,0.3,0.7,0.6
			c0,0.2,0.4,4.3-4.1,8.3C549.3,108.2,546.2,108.3,546.1,108.3C546.1,108.3,546.1,108.3,546.1,108.3z"/>
		<path class="st3" d="M557.1,96.8c-0.2,0-0.5-0.1-0.6-0.4c-0.2-0.3-0.1-0.8,0.3-1c0.1,0,3-1.8,4.3-4.2c0.2-0.3,0.6-0.5,1-0.3
			c0.3,0.2,0.5,0.6,0.3,1c-1.5,2.8-4.7,4.7-4.8,4.8C557.4,96.8,557.3,96.8,557.1,96.8z"/>
		<path class="st3" d="M481.3,64.3c-0.1,0-0.2,0-0.3-0.1c-0.1-0.1-2.9-1.5-5.2-6.9c-2.3-5.5-0.2-9.1-0.1-9.2
			c0.2-0.3,0.6-0.4,0.9-0.3c0.1,0.1,3.3,1.5,5.7,6.1c2.5,4.7-0.2,9.8-0.4,10.1C481.8,64.1,481.6,64.3,481.3,64.3z"/>
		<path class="st3" d="M476.3,49.1c-0.2,0-0.4-0.1-0.6-0.3c-0.1-0.1-2.2-3.2-2.3-6.4c0-0.4,0.3-0.7,0.7-0.7c0.4,0,0.7,0.3,0.7,0.7
			c0.1,2.8,2,5.6,2,5.6c0.2,0.3,0.1,0.8-0.2,1C476.6,49.1,476.5,49.1,476.3,49.1z"/>
		<path class="st3" d="M561.9,113.7c-0.2,0-0.4-0.1-0.5-0.3c-0.1-0.1-2-2.5-2-8.4c0-6,3.4-8.4,3.5-8.5c0.3-0.2,0.7-0.2,0.9,0.1
			c0.1,0.1,2.4,2.7,2.8,7.8c0.4,5.3-4.1,9-4.3,9.1C562.2,113.7,562.1,113.7,561.9,113.7z"/>
		<path class="st3" d="M563.3,97.8c-0.3,0-0.6-0.2-0.7-0.6c0-0.2-0.7-3.8,0.4-6.8c0.1-0.4,0.5-0.5,0.9-0.4c0.4,0.1,0.5,0.5,0.4,0.9
			c-1,2.6-0.4,5.9-0.3,6c0.1,0.4-0.2,0.8-0.6,0.8C563.4,97.8,563.3,97.8,563.3,97.8z"/>
		<g>
			<path class="st3" d="M477.4,69.1c0,1.9-0.9,3.5-1,3.6c-0.1,0.2-0.4,0.3-0.6,0.2c-0.1,0-1.7-1-2.9-4.3c-1.3-3.4,0.1-5.5,0.2-5.5
				c0.1-0.2,0.4-0.2,0.5-0.1c0.1,0,1.9,1,3.3,3.8C477.3,67.5,477.4,68.3,477.4,69.1z"/>
		</g>
		<g>
			<path class="st3" d="M473.8,63.3c0,0.1-0.1,0.3-0.2,0.4c-0.2,0.1-0.5,0.1-0.6-0.1c0-0.1-1.2-2-1.2-3.9l0,0c0-0.2,0.2-0.4,0.4-0.4
				c0.2,0,0.4,0.2,0.4,0.4c0,1.7,1.1,3.4,1.1,3.4C473.8,63.1,473.8,63.2,473.8,63.3z"/>
		</g>
		<g>
			<path class="st3" d="M468.6,74.2c-1.7,1.7-3.9,2.3-4.1,2.3c-0.3,0.1-0.6-0.1-0.7-0.4c0-0.1-0.6-2.4,1.2-6.4
				c1.9-4.1,5-4.8,5.1-4.8c0.3-0.1,0.5,0.1,0.6,0.4c0,0.1,0.9,2.6-0.5,6.3C469.9,72.6,469.3,73.5,468.6,74.2z"/>
		</g>
		<g>
			<path class="st3" d="M470.6,65.8c-0.1,0.1-0.3,0.2-0.5,0.1c-0.3-0.1-0.5-0.4-0.4-0.6c0-0.1,0.7-2.9,2.4-4.6c0,0,0,0,0,0
				c0.2-0.2,0.5-0.2,0.8,0c0.2,0.2,0.2,0.5,0,0.8c-1.5,1.5-2.1,4-2.1,4C470.8,65.6,470.7,65.7,470.6,65.8z"/>
		</g>
		<path class="st3" d="M567.7,140.1c-0.4,0-0.7-0.3-0.7-0.7c0-0.3-0.5-7.8,4.8-12.1c5.2-4.1,9.7-4.2,9.9-4.2c0,0,0,0,0,0
			c0.4,0,0.7,0.3,0.7,0.6c0,0.2,0.7,5.5-5,10.8C571.9,139.8,567.9,140,567.7,140.1C567.7,140.1,567.7,140.1,567.7,140.1z"/>
		<path class="st3" d="M581.7,124.5c-0.2,0-0.5-0.1-0.6-0.3c-0.2-0.3-0.1-0.8,0.2-1l0,0c0,0,3.9-2.4,5.5-5.8
			c0.2-0.4,0.6-0.5,0.9-0.3c0.4,0.2,0.5,0.6,0.3,0.9c-1.8,3.7-5.9,6.3-6,6.4C582,124.5,581.8,124.5,581.7,124.5z"/>
		<g>
			<path class="st3" d="M591.5,144.5c-0.2,0-0.4-0.1-0.5-0.3c-0.1-0.1-2-2.5-2-8.4c0-6,3.4-8.4,3.5-8.5c0.3-0.2,0.7-0.2,0.9,0.1
				c0.1,0.1,2.4,2.7,2.8,7.8c0.4,5.3-4.1,8.9-4.3,9.1C591.8,144.4,591.6,144.5,591.5,144.5z"/>
		</g>
		<path class="st3" d="M592.9,128.6c-0.3,0-0.6-0.2-0.7-0.6c0-0.2-0.7-3.8,0.4-6.8c0.1-0.4,0.6-0.5,0.9-0.4c0.4,0.1,0.5,0.6,0.4,0.9
			c-1,2.6-0.4,5.9-0.4,6c0.1,0.4-0.2,0.8-0.6,0.8C592.9,128.6,592.9,128.6,592.9,128.6z"/>
		<g>
			<path class="st3" d="M585.7,147.3c-0.8,1.8-2.2,2.8-2.3,2.9c-0.2,0.1-0.4,0.1-0.6-0.1c0-0.1-1.2-1.6-1-5.1c0.2-3.6,2.2-5,2.3-5
				c0.2-0.1,0.4-0.1,0.6,0.1c0.1,0.1,1.4,1.7,1.5,4.8C586.2,145.8,586,146.6,585.7,147.3z"/>
		</g>
		<g>
			<path class="st3" d="M584.7,140.6c-0.1,0.1-0.2,0.2-0.3,0.2c-0.2,0-0.4-0.1-0.5-0.4c0-0.1-0.3-2.3,0.4-4l0,0
				c0.1-0.2,0.3-0.3,0.6-0.2c0.2,0.1,0.3,0.3,0.2,0.6c-0.7,1.5-0.4,3.6-0.4,3.6C584.8,140.4,584.8,140.5,584.7,140.6z"/>
		</g>
		<g>
			<path class="st3" d="M575.6,148.5c-2.3,0.9-4.5,0.6-4.7,0.5c-0.3,0-0.5-0.3-0.5-0.6c0-0.1,0.4-2.4,3.6-5.4
				c3.3-3.1,6.4-2.5,6.6-2.4c0.3,0.1,0.4,0.3,0.4,0.6c0,0.1-0.2,2.7-2.9,5.6C577.5,147.6,576.5,148.2,575.6,148.5z"/>
		</g>
		<g>
			<path class="st3" d="M580.8,141.6c-0.2,0.1-0.4,0-0.5-0.1c-0.2-0.2-0.3-0.5-0.1-0.7c0.1-0.1,1.7-2.4,4-3.3l0,0
				c0.3-0.1,0.6,0,0.7,0.3c0.1,0.3,0,0.6-0.3,0.7c-2,0.8-3.5,2.9-3.5,2.9C581,141.5,580.9,141.6,580.8,141.6z"/>
		</g>
		<g>
			<path class="st3" d="M549.3,85.6c0,1.9-0.9,3.5-1,3.6c-0.1,0.2-0.4,0.3-0.6,0.2c-0.1,0-1.7-1-2.9-4.3c-1.3-3.4,0.1-5.5,0.2-5.5
				c0.1-0.2,0.4-0.2,0.5-0.1c0.1,0,1.9,1,3.3,3.8C549.1,84,549.3,84.8,549.3,85.6z"/>
		</g>
		<g>
			<path class="st3" d="M545.7,79.8c0,0.1-0.1,0.3-0.2,0.4c-0.2,0.1-0.5,0.1-0.6-0.1c0-0.1-1.2-2-1.2-3.9v0c0-0.2,0.2-0.4,0.4-0.4
				c0.2,0,0.4,0.2,0.4,0.4c0,1.7,1.1,3.4,1.1,3.4C545.7,79.6,545.7,79.7,545.7,79.8z"/>
		</g>
		<g>
			<path class="st3" d="M540.5,90.7c-1.7,1.7-3.9,2.3-4.1,2.3c-0.3,0.1-0.6-0.1-0.7-0.4c0-0.1-0.6-2.4,1.2-6.4
				c1.9-4.1,5-4.8,5.1-4.8c0.3-0.1,0.5,0.1,0.6,0.4c0,0.1,0.9,2.6-0.5,6.3C541.8,89.1,541.2,90,540.5,90.7z"/>
		</g>
		<g>
			<path class="st3" d="M542.5,82.3c-0.1,0.1-0.3,0.2-0.5,0.1c-0.3-0.1-0.5-0.4-0.4-0.6c0-0.1,0.7-2.9,2.4-4.6c0,0,0,0,0,0
				c0.2-0.2,0.5-0.2,0.8,0c0.2,0.2,0.2,0.5,0,0.8c-1.5,1.5-2.1,4-2.1,4C542.7,82.1,542.6,82.2,542.5,82.3z"/>
		</g>
		<g>
			<path class="st3" d="M610.5,156.5c-0.8,1.7-2.3,2.8-2.4,2.9c-0.2,0.1-0.4,0.1-0.6-0.1c0-0.1-1.1-1.6-0.9-5.1
				c0.2-3.6,2.3-4.9,2.4-5c0.2-0.1,0.4-0.1,0.6,0.1c0.1,0.1,1.4,1.7,1.4,4.8C611.1,154.9,610.8,155.8,610.5,156.5z"/>
		</g>
		<g>
			<path class="st3" d="M609.7,149.7c-0.1,0.1-0.2,0.2-0.3,0.2c-0.2,0-0.4-0.1-0.5-0.4c0-0.1-0.3-2.3,0.5-4l0,0
				c0.1-0.2,0.4-0.3,0.6-0.2c0.2,0.1,0.3,0.4,0.2,0.6c-0.7,1.5-0.4,3.6-0.4,3.6C609.7,149.5,609.7,149.6,609.7,149.7z"/>
		</g>
		<g>
			<path class="st3" d="M600.4,157.5c-2.3,0.8-4.5,0.5-4.7,0.4c-0.3,0-0.5-0.3-0.4-0.6c0-0.1,0.4-2.4,3.7-5.4c3.4-3,6.5-2.3,6.6-2.3
				c0.3,0.1,0.4,0.3,0.4,0.6c0,0.1-0.3,2.7-3,5.6C602.3,156.6,601.3,157.1,600.4,157.5z"/>
		</g>
		<g>
			<path class="st3" d="M605.7,150.7c-0.2,0.1-0.4,0-0.5-0.1c-0.2-0.2-0.3-0.5-0.1-0.8c0.1-0.1,1.8-2.3,4.1-3.2c0,0,0,0,0,0
				c0.3-0.1,0.6,0,0.7,0.3c0.1,0.3,0,0.6-0.3,0.7c-2,0.7-3.6,2.8-3.6,2.8C605.9,150.6,605.8,150.6,605.7,150.7z"/>
		</g>
		<g>
			<path class="st3" d="M618.5,119.9c1.9-0.2,3.6,0.5,3.7,0.5c0.2,0.1,0.3,0.3,0.2,0.6c0,0.1-0.8,1.8-3.9,3.4
				c-3.2,1.7-5.4,0.6-5.5,0.5c-0.2-0.1-0.3-0.3-0.2-0.5c0-0.1,0.8-2,3.4-3.7C616.9,120.2,617.8,120,618.5,119.9z"/>
		</g>
		<g>
			<path class="st3" d="M613.2,124.1c0.1,0,0.3,0,0.4,0.2c0.1,0.2,0.1,0.4-0.1,0.6c-0.1,0.1-1.8,1.4-3.7,1.7c0,0,0,0,0,0
				c-0.2,0-0.4-0.1-0.5-0.4c0-0.2,0.1-0.4,0.4-0.5c1.7-0.2,3.3-1.5,3.3-1.5C613,124.1,613.1,124.1,613.2,124.1z"/>
		</g>
		<g>
			<path class="st3" d="M624.6,128c1.9,1.5,2.8,3.6,2.8,3.8c0.1,0.3,0,0.6-0.3,0.7c-0.1,0-2.3,0.9-6.5-0.4c-4.3-1.4-5.4-4.3-5.4-4.5
				c-0.1-0.3,0-0.5,0.3-0.7c0.1,0,2.5-1.2,6.3-0.3C622.9,126.8,623.9,127.3,624.6,128z"/>
		</g>
		<g>
			<path class="st3" d="M616,127c0.1,0.1,0.2,0.3,0.2,0.5c0,0.3-0.3,0.5-0.6,0.5c-0.1,0-2.9-0.3-4.8-1.8l0,0
				c-0.2-0.2-0.3-0.5-0.1-0.8c0.2-0.2,0.5-0.3,0.8-0.1c1.6,1.3,4.2,1.6,4.3,1.6C615.9,126.8,616,126.9,616,127z"/>
		</g>
		<g>
			<path class="st3" d="M437.5,25.8c-3-0.7-4.3-2.3-4.4-2.4c-0.1-0.2-0.1-0.4,0-0.6c0.1-0.1,1.8-1.8,5.4-1.3c3.5,0.5,4.7,1.9,4.8,2
				c0.2,0.2,0.1,0.4,0,0.6c-0.1,0.1-1.4,1.3-3.3,1.7C439.3,26,438.4,26,437.5,25.8z"/>
		</g>
		<g>
			<path class="st3" d="M433.6,23.5c0.1,0,0.3-0.1,0.3-0.3c0.1-0.2,0-0.5-0.3-0.5c-0.1,0-2.2-0.8-4.1-0.4l0,0
				c-0.2,0.1-0.4,0.3-0.3,0.5c0.1,0.2,0.3,0.4,0.5,0.3c1.6-0.4,3.6,0.3,3.6,0.3C433.4,23.5,433.5,23.5,433.6,23.5z"/>
		</g>
		<g>
			<path class="st3" d="M441,18.4c-3.3,2-6,1.7-6.1,1.7c-0.3,0-0.5-0.3-0.5-0.5c0-0.1,0-3.3,3.7-6c3.6-2.6,6-2.5,6.1-2.5
				c0.3,0,0.5,0.3,0.5,0.6c0,0.1-0.1,2.4-1.5,4.5C442.7,17,441.9,17.8,441,18.4z"/>
		</g>
		<g>
			<path class="st3" d="M435.4,19.9c0.1-0.1,0.1-0.3,0-0.5c-0.1-0.3-0.4-0.4-0.7-0.3c-0.1,0-2.7,1.2-4,3.3c0,0,0,0,0,0
				c-0.2,0.2-0.1,0.6,0.2,0.7c0.2,0.2,0.6,0.1,0.7-0.2c1.1-1.8,3.5-2.9,3.5-2.9C435.3,20,435.3,20,435.4,19.9z"/>
		</g>
		<g>
			<path class="st3" d="M454.6,16.8c1-1.6,2.6-2.5,2.7-2.6c0.2-0.1,0.5,0,0.6,0.2c0,0.1,0.9,1.7,0.3,5.2c-0.6,3.5-2.9,4.6-3,4.7
				c-0.2,0.1-0.4,0-0.5-0.2c0-0.1-1.2-1.8-0.9-4.9C453.9,18.3,454.2,17.5,454.6,16.8z"/>
		</g>
		<g>
			<path class="st3" d="M454.7,23.7c0.1-0.1,0.2-0.2,0.4-0.2c0.2,0,0.4,0.2,0.4,0.4c0,0.1,0,2.3-1,4l0,0c-0.1,0.2-0.4,0.3-0.6,0.1
				c-0.2-0.1-0.3-0.4-0.1-0.6c0.9-1.4,0.8-3.5,0.8-3.5C454.6,23.8,454.6,23.7,454.7,23.7z"/>
		</g>
		<g>
			<path class="st3" d="M496,27c1.3-1.4,3-2,3.1-2c0.2-0.1,0.5,0.1,0.5,0.3c0,0.1,0.6,1.9-0.7,5.1c-1.3,3.3-3.7,4-3.8,4
				c-0.2,0.1-0.4-0.1-0.5-0.3c0-0.1-0.8-2,0.1-5C495,28.3,495.5,27.5,496,27z"/>
		</g>
		<g>
			<path class="st3" d="M494.7,33.7c0.1-0.1,0.2-0.2,0.4-0.1c0.2,0,0.4,0.3,0.3,0.5c0,0.1-0.4,2.3-1.7,3.7l0,0
				c-0.2,0.2-0.4,0.2-0.6,0c-0.2-0.2-0.2-0.4,0-0.6c1.1-1.2,1.5-3.2,1.5-3.3C494.6,33.8,494.6,33.7,494.7,33.7z"/>
		</g>
		<g>
			<path class="st3" d="M483,28.2c1.9,0.3,3.3,1.4,3.4,1.5c0.2,0.1,0.2,0.4,0.1,0.6c0,0.1-1.2,1.5-4.6,2.3c-3.5,0.8-5.4-0.9-5.5-0.9
				c-0.2-0.1-0.2-0.4-0.1-0.6c0-0.1,1.3-1.8,4.2-2.7C481.4,28.1,482.2,28.1,483,28.2z"/>
		</g>
		<g>
			<path class="st3" d="M476.7,30.9c0.1,0,0.3,0.1,0.3,0.2c0.1,0.2,0,0.5-0.2,0.6c-0.1,0-2.1,0.9-4,0.6l0,0c-0.2,0-0.4-0.3-0.4-0.5
				c0-0.2,0.3-0.4,0.5-0.4c1.6,0.2,3.5-0.6,3.6-0.6C476.6,30.9,476.6,30.9,476.7,30.9z"/>
		</g>
		<g>
			<path class="st3" d="M508.2,31.7c1.9-0.1,3.5,0.8,3.6,0.8c0.2,0.1,0.3,0.4,0.2,0.6c0,0.1-0.9,1.7-4.1,3.1
				c-3.3,1.4-5.5,0.2-5.5,0.1c-0.2-0.1-0.3-0.3-0.2-0.5c0-0.1,0.9-2,3.6-3.4C506.5,31.9,507.4,31.7,508.2,31.7z"/>
		</g>
		<g>
			<path class="st3" d="M502.5,35.5c0.1,0,0.3,0.1,0.4,0.2c0.1,0.2,0.1,0.5-0.1,0.6c-0.1,0.1-1.9,1.3-3.8,1.4l0,0
				c-0.2,0-0.4-0.2-0.4-0.4c0-0.2,0.2-0.4,0.4-0.4c1.7-0.1,3.4-1.2,3.4-1.2C502.3,35.5,502.4,35.5,502.5,35.5z"/>
		</g>
		<path class="st3" d="M531.8,99.7c-0.1,0-0.2,0-0.3-0.1c-0.4-0.2-8.6-4.8-9.5-13.4c-0.8-8.4,2.2-13.2,2.3-13.4
			c0.2-0.3,0.6-0.4,0.9-0.3c0.3,0.1,6.3,3.1,8,12.7c1.7,9.5-0.7,13.9-0.8,14.1C532.3,99.5,532,99.7,531.8,99.7z"/>
		<path class="st3" d="M524.9,73.9C524.9,73.9,524.9,73.9,524.9,73.9c-0.4,0-0.7-0.3-0.7-0.7l0,0c0-0.1,0.1-5.9-2.4-10
			c-0.2-0.3-0.1-0.8,0.2-1c0.3-0.2,0.8-0.1,1,0.2c2.7,4.4,2.6,10.5,2.6,10.8C525.6,73.6,525.3,73.9,524.9,73.9z"/>
		<g>
			<path class="st3" d="M517.8,70.1c1.2-2.8,3.1-3.9,3.1-3.9c0.2-0.1,0.4,0,0.5,0.1c0.1,0.1,1.5,2.1,0.3,5.5
				c-1.1,3.3-2.7,4.3-2.8,4.4c-0.2,0.1-0.5,0.1-0.6-0.1c-0.1-0.1-1-1.6-1.1-3.5C517.4,71.8,517.5,70.9,517.8,70.1z"/>
		</g>
		<g>
			<path class="st3" d="M520.8,66.6c0,0.1,0.1,0.3,0.2,0.3c0.2,0.1,0.5,0,0.6-0.2c0-0.1,1.2-2,1.1-3.9l0,0c0-0.2-0.2-0.4-0.4-0.4
				c-0.2,0-0.4,0.2-0.4,0.4c0.1,1.7-0.9,3.5-1,3.5C520.8,66.4,520.8,66.5,520.8,66.6z"/>
		</g>
		<g>
			<path class="st3" d="M529.5,75.1c-2.3-2.1-2.6-4.2-2.6-4.3c0-0.2,0.1-0.4,0.3-0.5c0.1,0,2.5-0.7,5.3,1.5c2.8,2.2,3.2,4,3.2,4.1
				c0,0.2-0.1,0.4-0.3,0.5c-0.1,0-1.9,0.4-3.7-0.2C530.9,76.1,530.1,75.7,529.5,75.1z"/>
		</g>
		<g>
			<path class="st3" d="M527.1,71.2c0.1,0,0.3,0,0.4-0.1c0.2-0.2,0.2-0.4,0-0.6c-0.1-0.1-1.5-1.8-3.3-2.3l0,0
				c-0.2-0.1-0.5,0.1-0.5,0.3c-0.1,0.2,0.1,0.5,0.3,0.5c1.6,0.5,2.9,2.1,2.9,2.1C527,71.1,527.1,71.2,527.1,71.2z"/>
		</g>
		<path class="st3" d="M609.5,106.4c-0.3,0-0.6,0-0.9,0c-7.4-0.5-11.1-3.9-11.3-4c-0.3-0.2-0.3-0.6-0.1-0.9c0.1-0.2,3.6-5,12.2-5.1
			c0.1,0,0.2,0,0.3,0c8.2,0,11.6,2.7,11.7,2.8c0.3,0.2,0.3,0.7,0.1,1C621.3,100.4,616.5,106.4,609.5,106.4z M597.8,101.9
			L597.8,101.9L597.8,101.9z"/>
		<path class="st3" d="M588.5,103.2c-0.3,0-0.5-0.2-0.7-0.4c-0.1-0.4,0-0.8,0.4-0.9c4.2-1.7,9.5-0.7,9.7-0.7
			c0.4,0.1,0.6,0.4,0.6,0.8c-0.1,0.4-0.4,0.6-0.8,0.6c-0.1,0-5.1-0.9-8.9,0.6C588.7,103.2,588.6,103.2,588.5,103.2z"/>
		<g>
			<path class="st3" d="M595,108c-2.6-1.7-3.3-3.7-3.3-3.7c-0.1-0.2,0-0.4,0.2-0.5c0.1,0,2.3-1.1,5.5,0.6c3.1,1.7,3.8,3.4,3.9,3.5
				c0.1,0.2,0,0.5-0.2,0.5c-0.1,0-1.8,0.7-3.7,0.5C596.6,108.7,595.8,108.5,595,108z"/>
		</g>
		<g>
			<path class="st3" d="M592,104.5c0.1,0,0.3,0,0.4-0.2c0.1-0.2,0.1-0.4-0.1-0.6c-0.1-0.1-1.8-1.5-3.7-1.7l0,0
				c-0.2,0-0.4,0.1-0.5,0.4c0,0.2,0.1,0.4,0.4,0.5c1.7,0.2,3.2,1.5,3.3,1.5C591.9,104.5,591.9,104.5,592,104.5z"/>
		</g>
		<g>
			<path class="st3" d="M601.9,97.4c-2.5,1.9-4.5,1.9-4.6,1.9c-0.2,0-0.4-0.2-0.4-0.4c0-0.1-0.3-2.6,2.4-5c2.6-2.4,4.5-2.5,4.6-2.5
				c0.2,0,0.4,0.2,0.4,0.4c0,0.1,0.1,1.9-0.8,3.6C603.1,96.2,602.6,96.8,601.9,97.4z"/>
		</g>
		<g>
			<path class="st3" d="M597.6,99c0.1-0.1,0.1-0.3,0-0.4c-0.1-0.2-0.4-0.3-0.6-0.1c-0.1,0-2,1.2-2.9,2.9l0,0c-0.1,0.2,0,0.5,0.2,0.6
				c0.2,0.1,0.5,0,0.6-0.2c0.8-1.5,2.5-2.5,2.5-2.6C597.5,99.2,597.6,99.1,597.6,99z"/>
		</g>
		<path class="st3" d="M505.8,79.7c-0.1,0-0.1,0-0.2,0c-0.4-0.1-9.5-2.9-12.1-11.1c-2.5-8.1-0.6-13.4-0.5-13.6
			c0.1-0.3,0.5-0.5,0.8-0.4c0.3,0.1,6.8,1.7,10.5,10.8c3.7,8.9,2.2,13.8,2.1,14C506.3,79.5,506.1,79.7,505.8,79.7z"/>
		<path class="st3" d="M493.7,55.9c-0.3,0-0.6-0.2-0.7-0.6c0-0.1-1.2-5.8-4.4-9.3c-0.3-0.3-0.3-0.7,0-1c0.3-0.3,0.7-0.3,1,0
			c3.6,3.8,4.7,9.7,4.8,10c0.1,0.4-0.2,0.8-0.6,0.8C493.7,55.9,493.7,55.9,493.7,55.9z"/>
		<g>
			<path class="st3" d="M486.1,53.7c0.6-3,2.2-4.4,2.2-4.5c0.2-0.1,0.4-0.1,0.6,0c0.1,0.1,1.9,1.8,1.5,5.3c-0.4,3.5-1.7,4.8-1.8,4.9
				c-0.2,0.2-0.4,0.2-0.6,0c-0.1-0.1-1.3-1.4-1.8-3.2C486,55.4,485.9,54.6,486.1,53.7z"/>
		</g>
		<g>
			<path class="st3" d="M488.2,49.6c0,0.1,0.1,0.2,0.3,0.3c0.2,0.1,0.5-0.1,0.5-0.3c0-0.1,0.7-2.2,0.2-4.1l0,0
				c-0.1-0.2-0.3-0.4-0.5-0.3c-0.2,0.1-0.4,0.3-0.3,0.5c0.4,1.6-0.2,3.6-0.2,3.6C488.2,49.5,488.2,49.5,488.2,49.6z"/>
		</g>
		<g>
			<path class="st3" d="M464.8,17c2.4-0.6,4.6,0,4.7,0.1c0.3,0.1,0.4,0.4,0.4,0.7c0,0.1-0.7,2.4-4.3,4.9c-3.7,2.6-6.7,1.6-6.8,1.6
				c-0.3-0.1-0.4-0.4-0.3-0.6c0-0.1,0.6-2.7,3.6-5.2C462.8,17.6,463.8,17.2,464.8,17z"/>
		</g>
		<g>
			<path class="st3" d="M458.7,23.1c0.2,0,0.4,0,0.5,0.1c0.2,0.2,0.2,0.5,0,0.8c-0.1,0.1-2,2.1-4.4,2.7l0,0
				c-0.3,0.1-0.6-0.1-0.6-0.4c-0.1-0.3,0.1-0.6,0.4-0.6c2-0.5,3.8-2.4,3.9-2.4C458.5,23.2,458.6,23.2,458.7,23.1z"/>
		</g>
		<g>
			<path class="st3" d="M460.1,40.7c0.1,1.1-0.2,2-0.3,2c0,0.1-0.2,0.2-0.3,0.1c0,0-1-0.4-1.9-2.1c-1-1.8-0.4-3-0.3-3.1
				c0.1-0.1,0.2-0.2,0.3-0.1c0,0,1.1,0.4,2.1,1.8C459.9,39.9,460,40.3,460.1,40.7z"/>
		</g>
		<g>
			<path class="st3" d="M457.7,37.8c0,0.1,0,0.2-0.1,0.2c-0.1,0.1-0.2,0.1-0.3,0c0,0-0.8-1-1-2l0,0c0-0.1,0.1-0.2,0.2-0.3
				c0.1,0,0.2,0.1,0.3,0.2c0.1,0.9,0.8,1.8,0.9,1.8C457.7,37.7,457.7,37.8,457.7,37.8z"/>
		</g>
		<g>
			<path class="st3" d="M455.6,44.2c-0.8,1.1-2,1.6-2.1,1.6c-0.1,0.1-0.3,0-0.4-0.2c0-0.1-0.5-1.3,0.2-3.6c0.7-2.4,2.4-3,2.4-3.1
				c0.1,0,0.3,0,0.4,0.1c0,0.1,0.7,1.4,0.2,3.5C456.3,43.3,456,43.8,455.6,44.2z"/>
		</g>
		<g>
			<path class="st3" d="M456.1,39.4c-0.1,0.1-0.2,0.1-0.3,0.1c-0.2,0-0.3-0.2-0.3-0.3c0-0.1,0.1-1.6,1-2.7l0,0
				c0.1-0.1,0.3-0.2,0.4-0.1c0.1,0.1,0.2,0.3,0.1,0.4c-0.7,0.9-0.8,2.4-0.8,2.4C456.2,39.3,456.2,39.4,456.1,39.4z"/>
		</g>
		<g>
			<path class="st3" d="M511.9,60.8c0.1,1.1-0.2,2-0.3,2c0,0.1-0.2,0.2-0.3,0.1c0,0-1-0.4-1.9-2.1c-1-1.8-0.4-3-0.3-3.1
				c0.1-0.1,0.2-0.2,0.3-0.1c0,0,1.1,0.4,2.1,1.8C511.7,59.9,511.8,60.4,511.9,60.8z"/>
		</g>
		<g>
			<path class="st3" d="M509.5,57.9c0,0.1,0,0.2-0.1,0.2c-0.1,0.1-0.2,0.1-0.3,0c0,0-0.8-1-1-2l0,0c0-0.1,0.1-0.2,0.2-0.3
				c0.1,0,0.2,0.1,0.3,0.2c0.1,0.9,0.8,1.8,0.9,1.8C509.4,57.8,509.5,57.8,509.5,57.9z"/>
		</g>
		<g>
			<path class="st3" d="M507.4,64.3c-0.8,1.1-2,1.6-2.1,1.6c-0.1,0.1-0.3,0-0.4-0.2c0-0.1-0.5-1.3,0.2-3.6c0.7-2.4,2.4-3,2.4-3.1
				c0.1,0,0.3,0,0.4,0.1c0,0.1,0.7,1.4,0.2,3.5C508,63.3,507.8,63.9,507.4,64.3z"/>
		</g>
		<g>
			<path class="st3" d="M507.9,59.5c-0.1,0.1-0.2,0.1-0.3,0.1c-0.2,0-0.3-0.2-0.3-0.3c0-0.1,0.1-1.6,1-2.7l0,0
				c0.1-0.1,0.3-0.2,0.4-0.1c0.1,0.1,0.2,0.3,0.1,0.4c-0.7,0.9-0.8,2.4-0.8,2.4C508,59.4,507.9,59.5,507.9,59.5z"/>
		</g>
		<g>
			<path class="st3" d="M571.8,58.9c1-0.4,2-0.3,2-0.3c0.1,0,0.2,0.1,0.2,0.3c0,0-0.1,1.1-1.5,2.4c-1.4,1.4-2.8,1.2-2.9,1.1
				c-0.1,0-0.2-0.1-0.2-0.2c0,0,0.1-1.2,1.2-2.5C571,59.3,571.4,59,571.8,58.9z"/>
		</g>
		<g>
			<path class="st3" d="M569.6,61.9c0.1,0,0.2,0,0.2,0c0.1,0.1,0.1,0.2,0.1,0.3c0,0-0.7,1.1-1.7,1.5l0,0c-0.1,0-0.3,0-0.3-0.1
				c-0.1-0.1,0-0.3,0.1-0.3c0.9-0.4,1.5-1.3,1.5-1.3C569.5,62,569.5,62,569.6,61.9z"/>
		</g>
		<g>
			<path class="st3" d="M576.3,62.2c1.3,0.5,2,1.5,2.1,1.6c0.1,0.1,0.1,0.3,0,0.4c0,0-1.1,0.8-3.5,0.8c-2.5,0-3.5-1.5-3.6-1.5
				c-0.1-0.1-0.1-0.3,0-0.4c0,0,1.1-1,3.3-1.2C575.2,61.9,575.8,62,576.3,62.2z"/>
		</g>
		<g>
			<path class="st3" d="M571.6,63c0.1,0,0.2,0.1,0.2,0.2c0,0.2-0.1,0.3-0.2,0.3c-0.1,0-1.6,0.3-2.9-0.2l0,0
				c-0.2-0.1-0.2-0.2-0.2-0.4c0.1-0.2,0.2-0.2,0.4-0.2c1.1,0.4,2.5,0.2,2.5,0.2C571.4,63,571.5,63,571.6,63z"/>
		</g>
		<g>
			<path class="st3" d="M578.1,110.4c-0.3,1-1,1.7-1.1,1.8c-0.1,0.1-0.2,0.1-0.3,0c0,0-0.7-0.8-0.9-2.7c-0.2-2,0.9-2.9,0.9-2.9
				c0.1-0.1,0.2-0.1,0.3,0c0,0,0.9,0.8,1.2,2.5C578.3,109.6,578.2,110,578.1,110.4z"/>
		</g>
		<g>
			<path class="st3" d="M577.1,106.8c0,0.1-0.1,0.1-0.2,0.2c-0.1,0-0.3,0-0.3-0.2c0-0.1-0.4-1.2-0.1-2.3c0,0,0,0,0,0
				c0-0.1,0.2-0.2,0.3-0.2c0.1,0,0.2,0.2,0.2,0.3c-0.3,0.9,0.1,2,0.1,2C577.1,106.7,577.1,106.7,577.1,106.8z"/>
		</g>
		<g>
			<path class="st3" d="M572.6,111.8c-1.2,0.6-2.5,0.6-2.5,0.6c-0.2,0-0.3-0.1-0.3-0.3c0-0.1,0-1.4,1.6-3.3c1.6-1.9,3.4-1.8,3.4-1.8
				c0.1,0,0.3,0.1,0.3,0.3c0,0.1,0.1,1.5-1.2,3.3C573.6,111.2,573.1,111.6,572.6,111.8z"/>
		</g>
		<g>
			<path class="st3" d="M575,107.6c-0.1,0-0.2,0.1-0.3,0c-0.1-0.1-0.2-0.3-0.1-0.4c0-0.1,0.8-1.4,2-2.1l0,0c0.1-0.1,0.3,0,0.4,0.1
				c0.1,0.1,0,0.3-0.1,0.4c-1,0.6-1.7,1.8-1.7,1.8C575.1,107.6,575,107.6,575,107.6z"/>
		</g>
		<g>
			<path class="st3" d="M579.5,80.8c1.3,0.3,2.2,1.1,2.3,1.1c0.1,0.1,0.1,0.3,0,0.4c0,0-0.9,1-3.3,1.4c-2.4,0.4-3.7-0.8-3.7-0.8
				c-0.1-0.1-0.1-0.3,0-0.4c0,0,0.9-1.2,3-1.7C578.4,80.7,579,80.7,579.5,80.8z"/>
		</g>
		<g>
			<path class="st3" d="M575.1,82.5c0.1,0,0.2,0.1,0.2,0.2c0.1,0.2,0,0.3-0.2,0.4c-0.1,0-1.5,0.6-2.8,0.3c0,0,0,0,0,0
				c-0.2,0-0.3-0.2-0.2-0.3c0-0.2,0.2-0.3,0.3-0.2c1.1,0.2,2.4-0.3,2.5-0.3C575,82.5,575.1,82.5,575.1,82.5z"/>
		</g>
		<g>
			<path class="st3" d="M581.8,87.4c0.9,1.4,1.1,3,1.1,3c0,0.2-0.1,0.4-0.3,0.4c-0.1,0-1.7,0.1-4.2-1.6c-2.6-1.8-2.6-4-2.6-4
				c0-0.2,0.1-0.3,0.3-0.4c0.1,0,1.9-0.2,4.2,1.1C581,86.3,581.5,86.8,581.8,87.4z"/>
		</g>
		<g>
			<path class="st3" d="M576.4,85c0.1,0.1,0.1,0.2,0,0.4c-0.1,0.2-0.3,0.3-0.5,0.2c-0.1,0-1.8-0.8-2.8-2.2l0,0
				c-0.1-0.2-0.1-0.4,0.1-0.5c0.2-0.1,0.4-0.1,0.5,0.1c0.8,1.2,2.5,1.9,2.5,1.9C576.3,84.9,576.4,84.9,576.4,85z"/>
		</g>
		<g>
			<path class="st3" d="M554.6,93c-1.3-0.2-2.4-0.9-2.4-1c-0.1-0.1-0.2-0.3-0.1-0.4c0,0,0.8-1.1,3.2-1.7c2.4-0.6,3.8,0.5,3.9,0.5
				c0.1,0.1,0.1,0.3,0.1,0.4c0,0.1-0.8,1.3-2.9,2C555.8,93,555.2,93.1,554.6,93z"/>
		</g>
		<g>
			<path class="st3" d="M559,91c-0.1,0-0.2-0.1-0.2-0.2c-0.1-0.1,0-0.3,0.1-0.4c0.1,0,1.5-0.7,2.8-0.6l0,0c0.2,0,0.3,0.2,0.3,0.3
				c0,0.2-0.2,0.3-0.3,0.3c-1.2-0.1-2.5,0.5-2.5,0.5C559.1,91,559,91,559,91z"/>
		</g>
	</g>
	<g>
		<g>
			<path class="st3" d="M186.3,254.6c-0.9-1.5-0.7-2.6-0.7-2.7c0-0.1,0.1-0.2,0.2-0.2c0.1,0,1.4,0,2.6,1.7c1.1,1.6,1.1,2.6,1.1,2.7
				c0,0.1-0.1,0.2-0.2,0.2c-0.1,0-1.1-0.1-2-0.7C186.9,255.3,186.5,255,186.3,254.6z"/>
		</g>
		<g>
			<path class="st3" d="M185.6,252.1c0.1,0,0.1,0.1,0.2,0c0.1-0.1,0.2-0.2,0.1-0.3c0,0-0.5-1.2-1.4-1.8l0,0c-0.1-0.1-0.3,0-0.3,0.1
				c-0.1,0.1,0,0.3,0.1,0.3c0.8,0.5,1.2,1.6,1.2,1.6C185.6,252.1,185.6,252.1,185.6,252.1z"/>
		</g>
		<g>
			<path class="st3" d="M190.5,253.1c-2.1-0.6-3-1.7-3-1.8c-0.1-0.1-0.1-0.3,0-0.4c0.1-0.1,1.3-1.3,3.8-0.8c2.4,0.4,3.3,1.4,3.3,1.5
				c0.1,0.1,0.1,0.3,0,0.4c-0.1,0-1,0.9-2.3,1.1C191.8,253.2,191.2,253.3,190.5,253.1z"/>
		</g>
		<g>
			<path class="st3" d="M187.8,251.4c0.1,0,0.2-0.1,0.2-0.2c0.1-0.2,0-0.3-0.2-0.4c-0.1,0-1.5-0.6-2.8-0.3l0,0
				c-0.2,0-0.3,0.2-0.2,0.3c0,0.2,0.2,0.3,0.3,0.2c1.1-0.2,2.5,0.3,2.5,0.3C187.7,251.4,187.7,251.5,187.8,251.4z"/>
		</g>
		<circle class="st3" cx="608.8" cy="113.7" r="1.8"/>
		<circle class="st3" cx="607.5" cy="118.9" r="1.8"/>
		<circle class="st3" cx="605.6" cy="143.3" r="1.8"/>
		<circle class="st3" cx="600.5" cy="141.5" r="1.8"/>
		<circle class="st3" cx="601.3" cy="146.6" r="1.8"/>
		<circle class="st3" cx="573.1" cy="102" r="1.8"/>
		<circle class="st3" cx="543.3" cy="60" r="1.8"/>
		<circle class="st3" cx="558.7" cy="86.1" r="1.8"/>
		<circle class="st3" cx="554" cy="85.5" r="1.8"/>
		<circle class="st3" cx="541.1" cy="54.5" r="1.8"/>
		<circle class="st3" cx="546.5" cy="55.5" r="1.8"/>
		<circle class="st3" cx="430.7" cy="36.1" r="1.8"/>
		<circle class="st3" cx="435.5" cy="37.9" r="1.8"/>
		<circle class="st3" cx="431.6" cy="41.7" r="1.8"/>
		<circle class="st3" cx="460.1" cy="28.6" r="1.8"/>
		<circle class="st3" cx="465.3" cy="26.7" r="1.8"/>
		<circle class="st3" cx="506.3" cy="42.4" r="1.8"/>
		<circle class="st3" cx="496.1" cy="49.8" r="1.8"/>
		<circle class="st3" cx="417.3" cy="23.1" r="1.8"/>
		<circle class="st3" cx="421.8" cy="20.6" r="1.8"/>
		<circle class="st3" cx="194.2" cy="146.3" r="1.8"/>
		<circle class="st3" cx="202.1" cy="149.3" r="1.8"/>
		<circle class="st3" cx="229.2" cy="104.8" r="1.8"/>
		<circle class="st3" cx="230.2" cy="109.7" r="1.8"/>
		<circle class="st3" cx="233.5" cy="105.9" r="1.8"/>
		<circle class="st3" cx="265.2" cy="89.7" r="1.8"/>
		<circle class="st3" cx="229.2" cy="130.1" r="1.8"/>
		<circle class="st3" cx="233.8" cy="132.2" r="1.8"/>
		<circle class="st3" cx="208" cy="166.7" r="1.8"/>
		<circle class="st3" cx="184.3" cy="195.3" r="1.8"/>
		<circle class="st3" cx="180.1" cy="192.9" r="1.8"/>
		<circle class="st3" cx="191.1" cy="211.6" r="1.8"/>
		<circle class="st3" cx="194.7" cy="207.9" r="1.8"/>
		<circle class="st3" cx="195.6" cy="213.6" r="1.8"/>
		<circle class="st3" cx="175.7" cy="250" r="1.8"/>
	</g>
	<circle class="st3" cx="185.1" cy="261.7" r="1.8"/>
	<linearGradient id="SVGID_1_" gradientUnits="userSpaceOnUse" x1="284.4312" y1="278.5932" x2="284.3016" y2="278.5932">
		<stop  offset="0" style="stop-color:#183D1E"/>
		<stop  offset="1" style="stop-color:#4A8C41;stop-opacity:0"/>
	</linearGradient>
	<path class="st4" d="M284.4,278.3c0-0.2,0-0.3,0-0.5c0,0.4-0.1,0.9-0.2,1.5C284.3,279,284.4,278.7,284.4,278.3z"/>
	<linearGradient id="SVGID_2_" gradientUnits="userSpaceOnUse" x1="287.0506" y1="279.7343" x2="287.0506" y2="279.7343">
		<stop  offset="0" style="stop-color:#183D1E"/>
		<stop  offset="1" style="stop-color:#4A8C41;stop-opacity:0"/>
	</linearGradient>
	<path class="st5" d="M287.1,279.7"/>
	<g>
		<path class="st6" d="M129.4,285.2c-1.2-10.2-5.1-21.2-14.9-29.3c-3.1-2.5-6.3-4.5-9.8-6.1C62.8,230.6-3.8,279.3,4.2,360.1
			c3.3,33.2,21.1,58.9,50.8,56c9.1-0.9,17.1-5,24.1-11.1c17-14.7,28.7-41.1,37-61.8c2.5-6.3,4.7-12.1,6.5-17
			c3.1-8.7,4.9-14.5,4.9-14.5S131.1,299.4,129.4,285.2z M117.5,315.2c0,0-14.7,45.7-35.2,70.4c-7,8.5-14.7,14.5-22.8,15.3
			c-44.1,4.3-37.7-135,32.8-142c4.2-0.4,7.8-0.1,10.8,0.8C129.1,267,117.5,315.2,117.5,315.2z"/>
		<path class="st6" d="M338.5,304.6c-0.9-1.1-2-2.1-2-2.1s-20.8,37.1-30.1,44.9c-1,0.8-1.9,1.3-2.6,1.4c-5.9,0.6,1.6-25.2,6.3-44.9
			c2.1-8.6,3.6-16.1,3.3-19.7c-0.9-9.2-14.1-8.6-27.8-7.7c-0.1-1.2-0.3-2.4-0.5-3.5l0,0c-5-28.5-37.5-20-35.9-3.5
			c0.1,1.3,0.4,2.5,0.9,3.6c2.8,6.2,11.9,9.4,29.3,8.9c-0.1,0.8-0.2,1.7-0.4,2.7c0,0,0,0,0,0c-0.7,4.1-2.1,8.9-4,14.1c0,0,0,0,0,0.1
			c-0.4,1.1-0.8,2.3-1.3,3.4c-2.2,5.9-5,12.2-7.9,18.5c-9.7,21-21.4,41.2-23.1,43.1c0-1.2,0-2.3,0-3.4c0-0.1,0-0.2,0-0.2
			c0-0.9,0-1.8,0-2.7c0-0.1,0-0.1,0-0.2c-0.1-13.6-0.4-26.4-0.9-37.4c-0.7-17.2-1.6-30.2-2.1-36.2c-0.2-1.9-1.8-3.3-3.7-3.1
			l-7.4,0.7c-1.8,0.2-3.1,1.7-3.1,3.4c0.1,11.1,0.4,52.9-1.6,96.8c-0.1,1.9-0.2,3.9-0.3,5.8c0,0-22.7,27-32.3,38.8c0,0,0,0,0,0.1
			c-38.2,46.8-36.6,109.4-0.8,105.9c39.2-3.9,50-79.8,51.9-147.3c0-0.1,0-0.1,0-0.2c0.1-2.6,0.1-5.1,0.2-7.7
			c13.7-19.1,24-39.1,31-55.9c7.3-17.3,11.2-31.3,11.9-37.7c0,0,0-0.1,0-0.1c0.1-0.6,0.1-1.1,0.1-1.5c0,0,0,0,0,0c0,0,0-0.1,0-0.1
			l0,0c1.6-0.1,3.3-0.3,5-0.4c8.7-0.9,8,8.8,5.1,21.7c-3.1,14-8.8,31.9-7.6,44.5c0.7,6.8,4.6,12.9,13.3,12.1c1-0.1,2.1-0.5,3.3-1.3
			c10.3-6.3,26.4-34.4,32.6-46.2c1.6-3.1,2.6-5.1,2.5-5.3C339.9,306.4,339.2,305.5,338.5,304.6z M218.2,452.5
			c-5.2,39.3-13.7,70.3-28,71.7c-19.5,1.9-22.5-45,0.5-82.1c2.3-3.8,4.9-7.4,7.8-10.9c7.2-8.8,15.9-19.4,24.4-29.7
			C221.8,418.8,220.3,436.4,218.2,452.5z M279.5,277c-12.6,0.8-24.1,0.7-25-7.9c0-0.2,0-0.3,0-0.5c0-0.1,0-0.2,0-0.2
			c0-0.1,0-0.2,0-0.3c0-0.1,0-0.1,0-0.2c0-0.1,0-0.1,0-0.2c0,0,0-0.1,0-0.1c0-0.1,0-0.2,0.1-0.4c0,0,0,0,0,0c0,0,0-0.1,0-0.1
			c0-0.1,0-0.1,0-0.2c0-0.1,0-0.2,0.1-0.2c0,0,0-0.1,0-0.1c0-0.1,0-0.1,0.1-0.2c0-0.1,0-0.2,0.1-0.2c0-0.1,0-0.1,0.1-0.2
			c0,0,0,0,0-0.1c0-0.1,0.1-0.2,0.1-0.2c0,0,0,0,0,0c0-0.1,0.1-0.2,0.1-0.2c0-0.1,0.1-0.1,0.1-0.2c0,0,0,0,0,0
			c0-0.1,0.1-0.1,0.1-0.2c0-0.1,0.1-0.1,0.1-0.2c0,0,0,0,0,0l0,0c0-0.1,0.1-0.2,0.2-0.3c0-0.1,0.1-0.1,0.1-0.2
			c0.1-0.2,0.2-0.3,0.3-0.5C261.4,255.9,278.7,253.9,279.5,277C279.5,277,279.5,277,279.5,277z"/>
		<path class="st6" d="M706.1,214c0,0-25.6,45.7-32.7,46.4c-8.5,0.8,10.7-52.9,9.6-64.6c-0.9-9.2-14.1-8.6-27.8-7.7
			c-2.9-32.7-38-24.1-36.3-7c0.8,8.5,9.7,13.1,30.2,12.5c-0.5,9-3.2,21.1-9.1,37c-5.9,16-23,40.9-23,40.9l7.1,1.7
			c0,0,13.2-18.9,21.7-40.1c6.7-16.8,9.4-29.8,9.5-39.8c1.6-0.1,3.3-0.3,5-0.4c18.2-1.8-4.9,41.9-2.5,66.1
			c0.7,6.8,4.6,12.9,13.3,12.1c12-1.2,38.5-51.7,38.4-52.7C709.5,217.3,706.1,214,706.1,214z M624.1,180.6c-1.1-11.2,24-20,25,7.9
			C636.5,189.3,624.9,189.1,624.1,180.6z"/>
		<path class="st6" d="M359.6,249.3c7.5,1.5,11.6-2.2,12.3-5.9c0.7-3.8-3.1-5.6-6-6.2c-3-0.6-14.9-1-16.2,6
			C348.7,247.8,354.9,248.3,359.6,249.3z"/>
		<path class="st6" d="M179.3,338.8c-0.7,0.9-3.1,10.6-7.1,23.1c-3,9.3-6.9,20.1-11.5,30c-7.4,15.6-16.7,28.8-27.6,29.9
			c-23.5,2.3-23.1-38.8-16.8-78.6c3.7-23.8,9.5-47.1,13.5-60.4c0.8-2.5,1.5-4.7,2.1-6.5c0.9-2.7,3.8-4.1,6.5-3.4l6,2.3
			c2.9,0.8,4.6,3.9,3.6,6.8c-7.8,22.8-30.4,130.8-11.7,128.9c5.8-0.6,12.1-11.4,17.9-25.1c4.1-9.6,7.9-20.6,11.1-30.3
			c4.5-13.7,7.8-25,8.7-26.4C174.6,334.1,176.4,337.6,179.3,338.8z"/>
		<path class="st6" d="M540.4,246.3c0,0-2,4.1-5.5,10.4c-6.9,12.2-19.4,32.6-33.6,45.7c-7.4,6.9-15.3,11.9-23.1,12.6
			c-77.3,7.6-39.4-142.1,28.8-148.9c25.6-2.5,24.8,18.7,11.9,41.1c-1.1,2-4,1.9-5-0.2c-0.3-0.7-0.5-1.5-0.6-2.3c0-1,0.2-2,0.6-2.9
			c3.8-7.3,13.6-27.9,4.7-27c-43.7,4.3-80.9,137.2-40.8,133.3c7.5-0.7,16-7.7,24.1-16.8c17.7-19.9,33.7-50.5,33.7-50.5l0.2,0.3
			L540.4,246.3z"/>
		<path class="st6" d="M225.7,292.3c-3.4-3.7-9-6-18-5.1c-33,3.2-45.4,46.7-43.4,66.5c0.8,8.4,3.5,14.9,7.1,19.5
			c2.2,2.7,4.8,4.8,7.6,6.2c3.5,1.7,7.2,2.3,11,2c15.4-1.5,29.5-35.6,35.6-52.5c2-5.6,3.2-9.3,3.2-9.3S234.1,301.5,225.7,292.3z
			 M222.7,321.6c0,0-16.2,48.4-35.1,50.3c-1,0.1-2,0-2.8-0.4c-2.9-1.1-4.6-4.7-5.5-9.6c-3.4-20.5,10-65.4,33.9-67.8
			C227.6,292.7,222.7,321.6,222.7,321.6z"/>
		<path class="st6" d="M349.9,253.2c-1.2-0.1-2.3,0.6-2.6,1.7c-0.3,1.1,0.5,1-0.1,2.9c-6.1,21.2-29,90.9,0.4,85.8
			c9.2-1.6,25.4-35.1,29.2-43.2c0.5-1.1,1-3.1,0.3-4.1L377,296c-0.5-0.8-1.6-1.2-2.5-0.8l0,0c-1.3,0.6-2.8,2-3.4,3.3
			c-4.7,9.7-17.3,33.4-22,34.2c-9.4,1.6,8.1-61.1,13.9-74.5c0.6-1.4-0.6-3.6-2.1-3.8L349.9,253.2z"/>
		<path class="st6" d="M597.2,212.3c-1.4-8.4-6.7-16.4-22.3-14.8c-1.8,0.2-3.5,0.5-5.1,0.9c-29.1,7-40.1,46.9-38.3,65.6
			c0,0.5,0.1,1,0.2,1.5c0.5,3.7,1.3,7.1,2.4,10c2.4,6.1,6,10.5,10.2,13.2c3.9,2.4,8.4,3.4,12.9,3c12.8-1.3,24.7-25.1,31.9-42.8
			c4.3-10.6,6.9-19,6.9-19S598.6,220.8,597.2,212.3z M589.9,231.9c0,0-16.2,48.4-35.1,50.3c-3.3,0.3-5.7-1.8-7.1-5.5
			c-5.3-13.7,2.2-49.5,18.3-65c4.2-4.1,9.1-6.7,14.4-7.3C594.8,203,589.9,231.9,589.9,231.9z"/>
		<path class="st6" d="M602.4,206.4c-1.6-0.5-3.4,0.4-3.9,2c-5.4,15.8-23.5,90.2,0.8,87.8c17.5-1.7,42.1-52.6,47.9-66.7
			c0.8-2-5.4-3.8-5.9-2.4c-3.7,9.7-29.7,60.6-41.2,61.8c-11.3,1.1,6.9-62.6,11.6-76.4c0.6-1.7-0.4-3.6-2.2-4.1L602.4,206.4z"/>
		<path class="st6" d="M796.2,174.8c0,0-0.9,1.4-0.9,1.4c-9.3,13.7-47.5,68.1-67.8,70c-15.2,1.5-15.5-15.8-14.1-27
			c0.1-0.9,0.2-1.8,0.4-2.6l0,0c0.4-2.7,0.9-4.8,1.1-5.8c0.1-0.4,0.4-0.7,0.8-0.7c32.6-3.9,61-58.6,31.5-55.7
			c-32.2,3.2-56.9,52.2-49,79.1c0.8,2.7,1.9,5.1,3.3,7.3c4.7,7.1,13.2,11.2,26.2,9.9c28.6-2.8,66.8-65.1,71.3-72.4
			c0.1-0.1,1-1.6,1-1.9C800.3,174.2,797.5,173,796.2,174.8z M717.4,202.8c3.5-8.2,19.6-41.3,35.8-42.9c8.4-0.8-10.1,27.7-17.1,34.3
			c-6.2,5.8-14,8.8-17.6,9.9C717.8,204.3,717.1,203.5,717.4,202.8z"/>
	</g>
	<g>
		<path class="st1" d="M125.9,283c-1.2-10.2-5.1-21.2-14.9-29.3c-3.1-2.5-6.3-4.5-9.8-6.1C59.2,228.4-7.3,277.1,0.7,357.8
			c3.3,33.2,21.1,58.9,50.8,56c9.1-0.9,17.1-5,24.1-11.1c17-14.7,28.7-41.1,37-61.8c2.5-6.3,4.7-12.1,6.5-17
			c3.1-8.7,4.9-14.5,4.9-14.5S127.5,297.1,125.9,283z M113.9,312.9c0,0-14.7,45.7-35.2,70.4c-7,8.5-14.7,14.5-22.8,15.3
			c-44.1,4.3-37.7-135,32.8-142c4.2-0.4,7.8-0.1,10.8,0.8C125.5,264.7,113.9,312.9,113.9,312.9z"/>
		
			<linearGradient id="SVGID_3_" gradientUnits="userSpaceOnUse" x1="284.8268" y1="330.2842" x2="241.99" y2="313.3545" gradientTransform="matrix(0.9995 -3.302005e-02 3.302005e-02 0.9995 -179.4056 14.377)">
			<stop  offset="0" style="stop-color:#183D1E"/>
			<stop  offset="0.4474" style="stop-color:#4A8C41;stop-opacity:0"/>
		</linearGradient>
		<path class="st7" d="M125.9,283l-6.8,41c-1.8,4.9-3.9,10.7-6.5,17c-8.4,20.7-20,47-37,61.8l3.2-19.4
			c20.4-24.7,35.2-70.4,35.2-70.4s11.6-48.2-14.3-55.5l1.6-9.8c3.4,1.6,6.7,3.6,9.8,6.1C120.8,261.7,124.7,272.8,125.9,283z"/>
		<path class="st1" d="M335,302.4c-0.9-1.1-2-2.1-2-2.1s-20.8,37.1-30.1,44.9c-1,0.8-1.9,1.3-2.6,1.4c-5.9,0.6,1.6-25.2,6.3-44.9
			c2.1-8.6,3.6-16.1,3.3-19.7c-0.9-9.2-14.1-8.6-27.8-7.7c-0.1-1.2-0.3-2.4-0.5-3.5c0,0,0,0,0,0c-5-28.5-37.5-20-35.9-3.5
			c0.1,1.3,0.4,2.5,0.9,3.6c2.8,6.2,11.9,9.4,29.3,8.9c-0.1,0.8-0.2,1.7-0.4,2.7c0,0,0,0,0,0c-0.7,4.1-2.1,8.9-4,14.1c0,0,0,0,0,0.1
			c-0.4,1.1-0.8,2.3-1.3,3.4c-2.2,5.9-5,12.2-7.9,18.5c-9.7,21-21.4,41.2-23.1,43.1c0-1.2,0-2.3,0-3.4c0-0.1,0-0.2,0-0.2
			c0-0.9,0-1.8,0-2.7c0-0.1,0-0.1,0-0.2c-0.1-13.6-0.4-26.4-0.9-37.4c-0.7-17.2-1.6-30.2-2.1-36.2c-0.2-1.9-1.8-3.3-3.7-3.1
			l-7.4,0.7c-1.8,0.2-3.1,1.7-3.1,3.4c0.1,11.1,0.4,52.9-1.6,96.8c-0.1,1.9-0.2,3.9-0.3,5.8c0,0-22.7,27-32.3,38.8c0,0,0,0,0,0.1
			c-38.2,46.8-36.6,109.4-0.8,105.9c39.2-3.9,50-79.8,51.9-147.3c0-0.1,0-0.1,0-0.2c0.1-2.6,0.1-5.1,0.2-7.7
			c13.7-19.1,24-39.1,31-55.9c7.3-17.3,11.2-31.3,11.9-37.7c0,0,0-0.1,0-0.1c0.1-0.6,0.1-1.1,0.1-1.5c0,0,0,0,0,0c0,0,0-0.1,0-0.1
			l0,0c1.6-0.1,3.3-0.3,5-0.4c8.7-0.9,8,8.8,5.1,21.7c-3.1,14-8.8,31.9-7.6,44.5c0.7,6.8,4.6,12.9,13.3,12.1c1-0.1,2.1-0.5,3.3-1.3
			c10.3-6.3,26.4-34.4,32.6-46.2c1.6-3.1,2.6-5.1,2.5-5.3C336.4,304.1,335.7,303.2,335,302.4z M214.6,450.2
			c-5.2,39.3-13.7,70.3-28,71.7c-19.5,1.9-22.5-45,0.5-82.1c2.3-3.8,4.9-7.4,7.8-10.9c7.2-8.8,15.9-19.4,24.4-29.7
			C218.3,416.6,216.7,434.1,214.6,450.2z M275.9,274.7c-12.6,0.8-24.1,0.7-25-7.9c0-0.2,0-0.3,0-0.5c0-0.1,0-0.2,0-0.2
			c0-0.1,0-0.2,0-0.3c0-0.1,0-0.1,0-0.2c0-0.1,0-0.1,0-0.2c0,0,0-0.1,0-0.1c0-0.1,0-0.2,0.1-0.4c0,0,0,0,0,0c0,0,0-0.1,0-0.1
			c0-0.1,0-0.1,0-0.2c0-0.1,0-0.2,0.1-0.2c0,0,0-0.1,0-0.1c0-0.1,0-0.1,0.1-0.2c0-0.1,0-0.2,0.1-0.2c0-0.1,0-0.1,0.1-0.2
			c0,0,0,0,0-0.1c0-0.1,0.1-0.2,0.1-0.2l0,0c0-0.1,0.1-0.2,0.1-0.2c0-0.1,0.1-0.1,0.1-0.2c0,0,0,0,0,0c0-0.1,0.1-0.1,0.1-0.2
			c0-0.1,0.1-0.1,0.1-0.2c0,0,0,0,0,0l0,0c0-0.1,0.1-0.2,0.2-0.3c0-0.1,0.1-0.1,0.1-0.2c0.1-0.2,0.2-0.3,0.3-0.5
			C257.9,253.7,275.1,251.7,275.9,274.7C276,274.7,276,274.7,275.9,274.7z"/>
		<path class="st1" d="M702.6,211.8c0,0-25.6,45.7-32.7,46.4c-8.5,0.8,10.7-52.9,9.6-64.6c-0.9-9.2-14.1-8.6-27.8-7.7
			c-2.9-32.7-38-24.1-36.3-7c0.8,8.5,9.7,13.1,30.2,12.5c-0.5,9-3.2,21.1-9.1,37c-5.9,16-23,40.9-23,40.9l7.1,1.7
			c0,0,13.2-18.9,21.7-40.1c6.7-16.8,9.4-29.8,9.5-39.8c1.6-0.1,3.3-0.3,5-0.4c18.2-1.8-4.9,41.9-2.5,66.1
			c0.7,6.8,4.6,12.9,13.3,12.1c12-1.2,38.5-51.7,38.4-52.7C705.9,215.1,702.6,211.8,702.6,211.8z M620.6,178.3
			c-1.1-11.2,24-20,25,7.9C632.9,187,621.4,186.9,620.6,178.3z"/>
		<path class="st1" d="M175.7,336.5c-0.7,0.9-3.1,10.6-7.1,23.1c-3,9.3-6.9,20.1-11.5,30c-7.4,15.6-16.7,28.8-27.6,29.9
			c-23.5,2.3-23.1-38.8-16.8-78.6c3.7-23.8,9.5-47.1,13.5-60.4c0.8-2.5,1.5-4.7,2.1-6.5c0.9-2.7,3.8-4.1,6.5-3.4l6,2.3
			c2.9,0.8,4.6,3.9,3.6,6.8c-7.8,22.8-30.4,130.8-11.7,128.9c5.8-0.6,12.1-11.4,17.9-25.1c4.1-9.6,7.9-20.6,11.1-30.3
			c4.5-13.7,7.8-25,8.7-26.4C171.1,331.9,172.9,335.4,175.7,336.5z"/>
		<path class="st1" d="M536.8,244.1c0,0-2,4.1-5.5,10.4c-6.9,12.2-19.4,32.6-33.6,45.7c-7.4,6.9-15.3,11.9-23.1,12.6
			c-77.3,7.6-39.4-142.1,28.8-148.9c25.6-2.5,24.8,18.7,11.9,41.1c-1.1,2-4,1.9-5-0.2c-0.3-0.7-0.5-1.5-0.6-2.3c0-1,0.2-2,0.6-2.9
			c3.8-7.3,13.6-27.9,4.7-27C471.5,177,434.3,310,474.4,306c7.5-0.7,16-7.7,24.1-16.8c17.7-19.9,33.7-50.5,33.7-50.5l0.2,0.3
			L536.8,244.1z"/>
		
			<linearGradient id="SVGID_4_" gradientUnits="userSpaceOnUse" x1="336.4352" y1="368.0926" x2="320.8933" y2="368.0926" gradientTransform="matrix(0.9995 -3.302005e-02 3.302005e-02 0.9995 -179.4056 14.377)">
			<stop  offset="0" style="stop-color:#183D1E"/>
			<stop  offset="1" style="stop-color:#4A8C41;stop-opacity:0"/>
		</linearGradient>
		<path class="st8" d="M168.6,359.6c-3,9.3-6.9,20.1-11.5,30l-6.7-5.9c4.1-9.6,7.9-20.6,11.1-30.3L168.6,359.6z"/>
		<path class="st1" d="M222.2,290.1c-3.4-3.7-9-6-18-5.1c-33,3.2-45.4,46.7-43.4,66.5c0.8,8.4,3.5,14.9,7.1,19.5
			c2.2,2.7,4.8,4.8,7.6,6.2c3.5,1.7,7.2,2.3,11,2c15.4-1.5,29.5-35.6,35.6-52.5c2-5.6,3.2-9.3,3.2-9.3S230.6,299.3,222.2,290.1z
			 M219.2,319.3c0,0-16.2,48.4-35.1,50.3c-1,0.1-2,0-2.8-0.4c-2.9-1.1-4.6-4.7-5.5-9.6c-3.4-20.5,10-65.4,33.9-67.8
			C224.1,290.4,219.2,319.3,219.2,319.3z"/>
		
			<linearGradient id="SVGID_5_" gradientUnits="userSpaceOnUse" x1="387.6615" y1="407.6793" x2="358.7788" y2="407.6793" gradientTransform="matrix(0.9995 -3.302005e-02 3.302005e-02 0.9995 -179.4056 14.377)">
			<stop  offset="0" style="stop-color:#183D1E"/>
			<stop  offset="1" style="stop-color:#4A8C41;stop-opacity:0"/>
		</linearGradient>
		<path class="st9" d="M219.4,399.1c-8.5,10.3-17.2,20.9-24.4,29.7c-2.9,3.5-5.5,7.1-7.8,10.9l0.7-15.7
			c9.7-11.8,32.3-38.8,32.3-38.8c0.1-1.9,0.2-3.9,0.3-5.8l-0.3,5.8"/>
		
			<linearGradient id="SVGID_6_" gradientUnits="userSpaceOnUse" x1="407.6658" y1="335.7617" x2="407.327" y2="335.7617" gradientTransform="matrix(0.9995 -3.302005e-02 3.302005e-02 0.9995 -179.4056 14.377)">
			<stop  offset="0" style="stop-color:#183D1E"/>
			<stop  offset="1" style="stop-color:#4A8C41;stop-opacity:0"/>
		</linearGradient>
		<path class="st10" d="M239.3,355.2c-0.1-6.5-0.9-37.4-0.9-37.4C238.9,328.8,239.3,341.6,239.3,355.2z"/>
		
			<linearGradient id="SVGID_7_" gradientUnits="userSpaceOnUse" x1="406.044" y1="350.2151" x2="433.2813" y2="350.2151" gradientTransform="matrix(0.9995 -3.302005e-02 3.302005e-02 0.9995 -179.4056 14.377)">
			<stop  offset="0" style="stop-color:#183D1E"/>
			<stop  offset="1" style="stop-color:#4A8C41;stop-opacity:0"/>
		</linearGradient>
		<path class="st11" d="M270.2,318.9c-7.1,16.8-17.4,36.8-31,55.9c0,2.5-0.1,5.1-0.2,7.7c0.1-5,0.3-17.2,0.3-24.2c0,1.1,0,2.3,0,3.4
			c1.7-1.9,13.4-22.1,23.1-43.1L270.2,318.9z"/>
		
			<linearGradient id="SVGID_8_" gradientUnits="userSpaceOnUse" x1="441.3817" y1="298.7606" x2="440.2574" y2="298.7606" gradientTransform="matrix(0.9995 -3.302005e-02 3.302005e-02 0.9995 -179.4056 14.377)">
			<stop  offset="0" style="stop-color:#183D1E"/>
			<stop  offset="1" style="stop-color:#4A8C41;stop-opacity:0"/>
		</linearGradient>
		<path class="st12" d="M270.3,300.1c0.4-1.2,0.9-2.3,1.3-3.4C270.8,298.8,270.3,300.1,270.3,300.1L270.3,300.1z"/>
		
			<linearGradient id="SVGID_9_" gradientUnits="userSpaceOnUse" x1="446.5419" y1="272.0433" x2="422.6593" y2="272.0433" gradientTransform="matrix(0.9995 -3.302005e-02 3.302005e-02 0.9995 -179.4056 14.377)">
			<stop  offset="0" style="stop-color:#183D1E"/>
			<stop  offset="1" style="stop-color:#4A8C41;stop-opacity:0"/>
		</linearGradient>
		<path class="st13" d="M246.7,270.9c2.8,6.2,11.9,9.4,29.3,8.9c-0.1,0.8-0.2,1.7-0.4,2.7c0.4-2,0.6-3.8,0.5-5.3
			c0-0.8-0.1-1.7-0.1-2.4c-12.6,0.8-24.1,0.7-25-7.9c-0.2-1.9,0.4-3.8,1.5-5.4L246.7,270.9z"/>
		
			<linearGradient id="SVGID_10_" gradientUnits="userSpaceOnUse" x1="452.6245" y1="281.0628" x2="452.4948" y2="281.0628" gradientTransform="matrix(0.9995 -3.302005e-02 3.302005e-02 0.9995 -179.4056 14.377)">
			<stop  offset="0" style="stop-color:#183D1E"/>
			<stop  offset="1" style="stop-color:#4A8C41;stop-opacity:0"/>
		</linearGradient>
		<path class="st14" d="M282.2,280.1c0-0.2,0-0.3,0-0.5c0,0.4,0,0.9-0.1,1.5C282.1,280.7,282.2,280.4,282.2,280.1z"/>
		
			<linearGradient id="SVGID_11_" gradientUnits="userSpaceOnUse" x1="452.2873" y1="287.3806" x2="475.115" y2="287.3806" gradientTransform="matrix(0.9995 -3.302005e-02 3.302005e-02 0.9995 -179.4056 14.377)">
			<stop  offset="0" style="stop-color:#183D1E"/>
			<stop  offset="0.4639" style="stop-color:#4A8C41;stop-opacity:0"/>
		</linearGradient>
		<path class="st15" d="M306.6,301.7l-14.3-1c2.9-12.9,3.7-22.5-5.1-21.7c-1.7,0.2-3.4,0.3-5,0.4c0-1,0-1.9,0-2.5
			c0-1.7-0.3-3.9-0.6-6.2c0.2,1.1,0.3,2.3,0.5,3.5c13.7-0.9,26.9-1.5,27.8,7.7C310.2,285.6,308.7,293.1,306.6,301.7z"/>
		
			<linearGradient id="SVGID_12_" gradientUnits="userSpaceOnUse" x1="455.2438" y1="282.2039" x2="455.2438" y2="282.2039" gradientTransform="matrix(0.9995 -3.302005e-02 3.302005e-02 0.9995 -179.4056 14.377)">
			<stop  offset="0" style="stop-color:#183D1E"/>
			<stop  offset="1" style="stop-color:#4A8C41;stop-opacity:0"/>
		</linearGradient>
		<path class="st16" d="M284.9,281.4"/>
		
			<linearGradient id="SVGID_13_" gradientUnits="userSpaceOnUse" x1="504.5864" y1="329.9662" x2="475.6036" y2="329.9662" gradientTransform="matrix(0.9995 -3.302005e-02 3.302005e-02 0.9995 -179.4056 14.377)">
			<stop  offset="0" style="stop-color:#183D1E"/>
			<stop  offset="1" style="stop-color:#4A8C41;stop-opacity:0"/>
		</linearGradient>
		<path class="st17" d="M335,302.4l-1.1,7.4c-6.2,11.8-22.3,39.9-32.6,46.2l1.6-10.8c9.3-7.8,30.1-44.9,30.1-44.9
			S334,301.3,335,302.4z"/>
		<path class="st1" d="M346.4,250.9c-1.2-0.1-2.3,0.6-2.6,1.7c-0.3,1.1,0.5,1-0.1,2.9c-6.1,21.2-29,90.9,0.4,85.8
			c9.2-1.6,25.4-35.1,29.2-43.2c0.5-1.1,1-3.1,0.3-4.1l-0.1-0.2c-0.5-0.8-1.6-1.2-2.5-0.8l0,0c-1.3,0.6-2.8,2-3.4,3.3
			c-4.7,9.7-17.3,33.4-22,34.2c-9.4,1.6,8.1-61.1,13.9-74.5c0.6-1.4-0.6-3.6-2.1-3.8L346.4,250.9z"/>
		
			<linearGradient id="SVGID_14_" gradientUnits="userSpaceOnUse" x1="704.0317" y1="277.9266" x2="674.0017" y2="277.9266" gradientTransform="matrix(0.9995 -3.302005e-02 3.302005e-02 0.9995 -179.4056 14.377)">
			<stop  offset="0" style="stop-color:#183D1E"/>
			<stop  offset="1" style="stop-color:#4A8C41;stop-opacity:0"/>
		</linearGradient>
		<path class="st18" d="M532.4,239l-1.1,15.5c-6.9,12.2-19.4,32.6-33.6,45.7l0.8-11c17.7-19.9,33.7-50.5,33.7-50.5L532.4,239z"/>
		<path class="st1" d="M593.7,210.1c-1.4-8.4-6.7-16.4-22.3-14.8c-1.8,0.2-3.5,0.5-5.1,0.9c-29.1,7-40.1,46.9-38.3,65.6
			c0,0.5,0.1,1,0.2,1.5c0.5,3.7,1.3,7.1,2.4,10c2.4,6.1,6,10.5,10.2,13.2c3.9,2.4,8.4,3.4,12.9,3c12.8-1.3,24.7-25.1,31.9-42.8
			c4.3-10.6,6.9-19,6.9-19S595.1,218.6,593.7,210.1z M586.4,229.6c0,0-16.2,48.4-35.1,50.3c-3.3,0.3-5.7-1.8-7.1-5.5
			c-5.3-13.7,2.2-49.5,18.3-65c4.2-4.1,9.1-6.7,14.4-7.3C591.3,200.7,586.4,229.6,586.4,229.6z"/>
		
			<linearGradient id="SVGID_15_" gradientUnits="userSpaceOnUse" x1="765.6169" y1="257.395" x2="720.6926" y2="249.8631" gradientTransform="matrix(0.9995 -3.302005e-02 3.302005e-02 0.9995 -179.4056 14.377)">
			<stop  offset="0" style="stop-color:#183D1E"/>
			<stop  offset="0.6896" style="stop-color:#4A8C41;stop-opacity:0"/>
		</linearGradient>
		<path class="st19" d="M592.4,227.6c0,0-2.6,8.4-6.9,19c-7.2,17.7-19.1,41.6-31.9,42.8c-4.5,0.4-9-0.5-12.9-3l3.4-11.9
			c1.4,3.7,3.8,5.8,7.1,5.5c18.9-1.9,35.1-50.3,35.1-50.3s4.9-28.9-9.5-27.5c-5.4,0.5-10.2,3.2-14.4,7.3l3.8-13.3
			c1.7-0.4,3.4-0.7,5.1-0.9c15.7-1.5,21,6.4,22.3,14.8C595.1,218.6,592.4,227.6,592.4,227.6z"/>
		<path class="st1" d="M598.9,204.1c-1.6-0.5-3.4,0.4-3.9,2c-5.4,15.8-23.5,90.2,0.8,87.8c17.5-1.7,42.1-52.6,47.9-66.7
			c0.8-2-5.4-3.8-5.9-2.4c-3.7,9.7-29.7,60.6-41.2,61.8c-11.3,1.1,6.9-62.6,11.6-76.4c0.6-1.7-0.4-3.6-2.2-4.1L598.9,204.1z"/>
		
			<linearGradient id="SVGID_16_" gradientUnits="userSpaceOnUse" x1="818.8989" y1="195.7369" x2="795.0163" y2="195.7369" gradientTransform="matrix(0.9995 -3.302005e-02 3.302005e-02 0.9995 -179.4056 14.377)">
			<stop  offset="0" style="stop-color:#183D1E"/>
			<stop  offset="1" style="stop-color:#4A8C41;stop-opacity:0"/>
		</linearGradient>
		<path class="st20" d="M616.3,182.3c2.8,6.2,11.9,9.4,29.3,8.9c-0.1,0.8-0.2,1.7-0.4,2.7c0.4-2,0.6-3.8,0.5-5.3
			c0-0.8-0.1-1.7-0.1-2.4c-12.6,0.8-24.1,0.7-25-7.9c-0.2-1.9,0.4-3.8,1.5-5.4L616.3,182.3z"/>
		
			<linearGradient id="SVGID_17_" gradientUnits="userSpaceOnUse" x1="824.6442" y1="211.0742" x2="847.4719" y2="211.0742" gradientTransform="matrix(0.9995 -3.302005e-02 3.302005e-02 0.9995 -179.4056 14.377)">
			<stop  offset="0" style="stop-color:#183D1E"/>
			<stop  offset="0.4639" style="stop-color:#4A8C41;stop-opacity:0"/>
		</linearGradient>
		<path class="st21" d="M676.2,213.2l-14.3-1c2.9-12.9,3.7-22.5-5.1-21.7c-1.7,0.2-3.4,0.3-5,0.4c0-1,0-1.9,0-2.5
			c0-1.7-0.3-3.9-0.6-6.2c0.2,1.1,0.3,2.3,0.5,3.5c13.7-0.9,26.9-1.5,27.8,7.7C679.8,197,678.3,204.5,676.2,213.2z"/>
		
			<linearGradient id="SVGID_18_" gradientUnits="userSpaceOnUse" x1="876.9433" y1="253.6597" x2="847.9605" y2="253.6597" gradientTransform="matrix(0.9995 -3.302005e-02 3.302005e-02 0.9995 -179.4056 14.377)">
			<stop  offset="0" style="stop-color:#183D1E"/>
			<stop  offset="1" style="stop-color:#4A8C41;stop-opacity:0"/>
		</linearGradient>
		<path class="st22" d="M704.6,213.8l-1.1,7.4c-6.2,11.8-22.3,39.9-32.6,46.2l1.6-10.8c9.3-7.8,30.1-44.9,30.1-44.9
			S703.7,212.7,704.6,213.8z"/>
		<path class="st1" d="M792.7,172.6c0,0-0.9,1.4-0.9,1.4c-9.3,13.7-47.5,68.1-67.8,70c-15.2,1.5-15.5-15.8-14.1-27
			c0.1-0.9,0.2-1.8,0.4-2.6l0,0c0.4-2.7,0.9-4.8,1.1-5.8c0.1-0.4,0.4-0.7,0.8-0.7c32.6-3.9,61-58.6,31.5-55.7
			c-32.2,3.2-56.9,52.2-49,79.1c0.8,2.7,1.9,5.1,3.3,7.3c4.7,7.1,13.2,11.2,26.2,9.9c28.6-2.8,66.8-65.1,71.3-72.4
			c0.1-0.1,1-1.6,1-1.9C796.8,172,793.9,170.8,792.7,172.6z M713.9,200.5c3.5-8.2,19.6-41.3,35.8-42.9c8.4-0.8-10.1,27.7-17.1,34.3
			c-6.2,5.8-14,8.8-17.6,9.9C714.2,202,713.5,201.3,713.9,200.5z"/>
	</g>
	<path class="st1" d="M359.3,247.7c7.5,1.7,11.7-1.8,12.5-5.5s-2.9-5.7-5.8-6.4c-2.9-0.7-14.8-1.5-16.4,5.5
		C348.5,245.9,354.7,246.7,359.3,247.7z"/>
	<path class="st23" d="M314.9,68.1l-14.7-5.8L290,65.7l-3-1.5L298,48.8l36.8,12.6l22.6-7.6c0,0-23.7,0.7-27.5-10.7
		c-4-11.8,18-17.4,18-17.4l-13.5-5.4c0,0-9.3,3.7-13.4,11.9c-4.1,8.2-0.7,12.7-0.7,12.7l-24.1-7.6c-1.6-0.5-3.4,0.1-4.3,1.5
		l-19.7,28.7c-1.1,1.7-0.4,4.1,1.5,4.9l12.8,4.6L314.9,68.1z"/>
	<path class="st23" d="M349.6,25.4l9.4,27.8l13.4,4.5l-12.1-36l14.2-4.8c0,0,9.1-1.3,11.7,6.4c3.7,11-10.6,14.3-10.6,14.3l-5.1,11.6
		l15-5c0,0,14.4-7.9,8.6-24.9C389.6,6.3,373.7,7,373.7,7l-15.6,5.3L349.6,25.4z"/>
</g>
</svg>
